<?xml version="1.0" encoding="utf-8"?>
<!-- Generator: Adobe Illustrator 19.2.1, SVG Export Plug-In . SVG Version: 6.00 Build 0)  -->
<svg version="1.1" id="Camada_1" xmlns="http://www.w3.org/2000/svg" xmlns:xlink="http://www.w3.org/1999/xlink" x="0px" y="0px"
	 viewBox="0 0 56.7 56.7" style="enable-background:new 0 0 56.7 56.7;" xml:space="preserve">
<style type="text/css">
	.st0{fill:#FFFFFF;}
	.st1{fill:#00CC8D;}
</style>
<g>
	<circle class="st0" cx="28.3" cy="28.3" r="28.3"/>
	<g>
		<path class="st1" d="M29.3,41.3h-0.1c-0.7,0-1.3-0.6-1.3-1.3V24.4c0-0.7,0.6-1.3,1.3-1.3h0.1c0.7,0,1.3,0.6,1.3,1.3V40
			C30.6,40.7,30,41.3,29.3,41.3z"/>
		<path class="st1" d="M38.2,25c0,5-4,9-9,9C29.3,29,33.3,25,38.2,25z"/>
		<path class="st1" d="M29.3,34c-8,0-14.5-6.5-14.5-14.5C22.8,19.5,29.3,26,29.3,34z"/>
	</g>
</g>
</svg>
