<?xml version="1.0" encoding="utf-8"?>
<!-- Generator: Adobe Illustrator 19.2.1, SVG Export Plug-In . SVG Version: 6.00 Build 0)  -->
<svg version="1.1" id="Camada_1" xmlns="http://www.w3.org/2000/svg" xmlns:xlink="http://www.w3.org/1999/xlink" x="0px" y="0px"
	 viewBox="0 0 56.7 56.7" style="enable-background:new 0 0 56.7 56.7;" xml:space="preserve">
<style type="text/css">
	.st0{fill:#FFFFFF;}
	.st1{fill:#4600CC;}
	.st2{fill:#D34600;}
</style>
<g>
	<circle class="st0" cx="28.3" cy="28.3" r="28.3"/>
	<g>
		<path class="st1" d="M34.2,34.4c0,2.4-1,4.5-2.5,6c-1.6,1.5-3.7,2.5-6,2.5c-4.7,0-8.5-3.8-8.5-8.5c0-2.4,0.9-4.5,2.5-6
			c1.6-1.5,3.7-2.5,6-2.5c0.3,0,0.7,0,1,0.1c1.3,0.1,2.4,0.6,3.5,1.2v2.8h2.8c0.6,1,1.1,2.2,1.2,3.5C34.2,33.7,34.2,34.1,34.2,34.4z
			"/>
		<ellipse class="st2" cx="28.4" cy="17.6" rx="3.9" ry="3.9"/>
		<path class="st2" d="M39.6,35.5c0,0.5-0.3,1.1-0.7,1.4c-0.8,0.6-1.9,0.4-2.4-0.4l-2.2-3.1h-5.8c-1,0-1.8-0.8-1.8-1.8v-8.4
			c0-1,0.8-1.7,1.7-1.7c1,0,1.7,0.8,1.7,1.7v6.7h5c0.6,0,1.1,0.3,1.4,0.7l2.7,3.8C39.5,34.7,39.6,35.1,39.6,35.5z"/>
	</g>
</g>
</svg>
