<?xml version="1.0" encoding="utf-8"?>
<!-- Generator: Adobe Illustrator 19.2.1, SVG Export Plug-In . SVG Version: 6.00 Build 0)  -->
<svg version="1.1" id="Camada_1" xmlns="http://www.w3.org/2000/svg" xmlns:xlink="http://www.w3.org/1999/xlink" x="0px" y="0px"
	 viewBox="0 0 56.7 56.7" style="enable-background:new 0 0 56.7 56.7;" xml:space="preserve">
<style type="text/css">
	.st0{fill:#FFFFFF;}
	.st1{fill:#BA2C00;}
	.st2{fill:#DB9600;}
	.st3{fill:#4600CC;}
</style>
<g>
	<circle class="st0" cx="28.3" cy="28.3" r="28.3"/>
	<g>
		<g>
			<g>
				<path class="st1" d="M32.7,35.7l-8.8-15.2c-0.1-0.2-0.4-0.3-0.7-0.2l0,0C23,20.5,22.9,20.8,23,21l8.8,15.2
					c0.1,0.2,0.4,0.3,0.7,0.2l0,0C32.8,36.2,32.8,35.9,32.7,35.7z"/>
				<rect x="21.5" y="21.4" transform="matrix(-0.866 0.5 -0.5 -0.866 53.5078 30.7515)" class="st2" width="2.3" height="2.3"/>
				<rect x="22.6" y="23.4" transform="matrix(-0.866 0.5 -0.5 -0.866 56.5957 33.8393)" class="st3" width="2.3" height="2.3"/>
				<rect x="23.8" y="25.3" transform="matrix(-0.866 0.5 -0.5 -0.866 59.6835 36.9272)" class="st2" width="2.3" height="2.3"/>
				<rect x="24.9" y="27.3" transform="matrix(-0.866 0.5 -0.5 -0.866 62.7714 40.015)" class="st3" width="2.3" height="2.3"/>
				<rect x="22.9" y="28.4" transform="matrix(-0.866 0.5 -0.5 -0.866 59.6835 43.1029)" class="st2" width="2.3" height="2.3"/>
				<rect x="21.8" y="26.5" transform="matrix(-0.866 0.5 -0.5 -0.866 56.5957 40.015)" class="st3" width="2.3" height="2.3"/>
				<rect x="20.7" y="24.5" transform="matrix(-0.866 0.5 -0.5 -0.866 53.5078 36.9272)" class="st2" width="2.3" height="2.3"/>
				<rect x="19.5" y="22.5" transform="matrix(-0.866 0.5 -0.5 -0.866 50.42 33.8393)" class="st3" width="2.3" height="2.3"/>
				<rect x="17.6" y="23.7" transform="matrix(-0.866 0.5 -0.5 -0.866 47.3321 36.9272)" class="st2" width="2.3" height="2.3"/>
				<rect x="18.7" y="25.6" transform="matrix(-0.866 0.5 -0.5 -0.866 50.42 40.015)" class="st3" width="2.3" height="2.3"/>
				<rect x="19.8" y="27.6" transform="matrix(-0.866 0.5 -0.5 -0.866 53.5078 43.1029)" class="st2" width="2.3" height="2.3"/>
				<rect x="21" y="29.5" transform="matrix(-0.866 0.5 -0.5 -0.866 56.5957 46.1907)" class="st3" width="2.3" height="2.3"/>
				<rect x="19" y="30.7" transform="matrix(-0.866 0.5 -0.5 -0.866 53.5078 49.2785)" class="st2" width="2.3" height="2.3"/>
				<rect x="17.9" y="28.7" transform="matrix(-0.866 0.5 -0.5 -0.866 50.42 46.1907)" class="st3" width="2.3" height="2.3"/>
				<rect x="16.8" y="26.8" transform="matrix(-0.866 0.5 -0.5 -0.866 47.3321 43.1029)" class="st2" width="2.3" height="2.3"/>
				<rect x="15.6" y="24.8" transform="matrix(-0.866 0.5 -0.5 -0.866 44.2443 40.015)" class="st3" width="2.3" height="2.3"/>
				<rect x="13.7" y="25.9" transform="matrix(-0.866 0.5 -0.5 -0.866 41.1565 43.1029)" class="st2" width="2.3" height="2.3"/>
				<rect x="14.8" y="27.9" transform="matrix(-0.866 0.5 -0.5 -0.866 44.2443 46.1907)" class="st3" width="2.3" height="2.3"/>
				<rect x="15.9" y="29.9" transform="matrix(-0.866 0.5 -0.5 -0.866 47.3321 49.2785)" class="st2" width="2.3" height="2.3"/>
				<rect x="17.1" y="31.8" transform="matrix(-0.866 0.5 -0.5 -0.866 50.42 52.3664)" class="st3" width="2.3" height="2.3"/>
				<rect x="15.1" y="32.9" transform="matrix(-0.866 0.5 -0.5 -0.866 47.3321 55.4542)" class="st2" width="2.3" height="2.3"/>
				<rect x="14" y="31" transform="matrix(-0.866 0.5 -0.5 -0.866 44.2443 52.3664)" class="st3" width="2.3" height="2.3"/>
				<rect x="12.8" y="29" transform="matrix(-0.866 0.5 -0.5 -0.866 41.1565 49.2785)" class="st2" width="2.3" height="2.3"/>
				<rect x="11.7" y="27.1" transform="matrix(-0.866 0.5 -0.5 -0.866 38.0686 46.1907)" class="st3" width="2.3" height="2.3"/>
			</g>
		</g>
		<g>
			<g>
				<path class="st1" d="M24,35.7l8.8-15.2c0.1-0.2,0.4-0.3,0.7-0.2h0c0.2,0.1,0.3,0.4,0.2,0.7l-8.8,15.2c-0.1,0.2-0.4,0.3-0.7,0.2
					l0,0C23.9,36.2,23.9,35.9,24,35.7z"/>
				<rect x="32.9" y="21.4" transform="matrix(0.866 0.5 -0.5 0.866 15.8352 -14.0091)" class="st2" width="2.3" height="2.3"/>
				<rect x="31.8" y="23.4" transform="matrix(0.866 0.5 -0.5 0.866 16.6626 -13.1817)" class="st3" width="2.3" height="2.3"/>
				<rect x="30.7" y="25.3" transform="matrix(0.866 0.5 -0.5 0.866 17.49 -12.3543)" class="st2" width="2.3" height="2.3"/>
				<rect x="29.5" y="27.3" transform="matrix(0.866 0.5 -0.5 0.866 18.3174 -11.5269)" class="st3" width="2.3" height="2.3"/>
				<rect x="31.5" y="28.4" transform="matrix(0.866 0.5 -0.5 0.866 19.1448 -12.3543)" class="st2" width="2.3" height="2.3"/>
				<rect x="32.6" y="26.5" transform="matrix(0.866 0.5 -0.5 0.866 18.3174 -13.1817)" class="st3" width="2.3" height="2.3"/>
				<rect x="33.8" y="24.5" transform="matrix(0.866 0.5 -0.5 0.866 17.49 -14.0091)" class="st2" width="2.3" height="2.3"/>
				<rect x="34.9" y="22.5" transform="matrix(0.866 0.5 -0.5 0.866 16.6626 -14.8365)" class="st3" width="2.3" height="2.3"/>
				<rect x="36.8" y="23.7" transform="matrix(0.866 0.5 -0.5 0.866 17.49 -15.6638)" class="st2" width="2.3" height="2.3"/>
				<rect x="35.7" y="25.6" transform="matrix(0.866 0.5 -0.5 0.866 18.3174 -14.8365)" class="st3" width="2.3" height="2.3"/>
				<rect x="34.6" y="27.6" transform="matrix(0.866 0.5 -0.5 0.866 19.1448 -14.0091)" class="st2" width="2.3" height="2.3"/>
				<rect x="33.5" y="29.5" transform="matrix(0.866 0.5 -0.5 0.866 19.9722 -13.1817)" class="st3" width="2.3" height="2.3"/>
				<rect x="35.4" y="30.7" transform="matrix(0.866 0.5 -0.5 0.866 20.7996 -14.0091)" class="st2" width="2.3" height="2.3"/>
				<rect x="36.5" y="28.7" transform="matrix(0.866 0.5 -0.5 0.866 19.9722 -14.8365)" class="st3" width="2.3" height="2.3"/>
				<rect x="37.7" y="26.8" transform="matrix(0.866 0.5 -0.5 0.866 19.1448 -15.6638)" class="st2" width="2.3" height="2.3"/>
				<rect x="38.8" y="24.8" transform="matrix(0.866 0.5 -0.5 0.866 18.3174 -16.4912)" class="st3" width="2.3" height="2.3"/>
				<rect x="40.8" y="25.9" transform="matrix(0.866 0.5 -0.5 0.866 19.1448 -17.3186)" class="st2" width="2.3" height="2.3"/>
				<rect x="39.6" y="27.9" transform="matrix(0.866 0.5 -0.5 0.866 19.9722 -16.4912)" class="st3" width="2.3" height="2.3"/>
				<rect x="38.5" y="29.9" transform="matrix(0.866 0.5 -0.5 0.866 20.7996 -15.6638)" class="st2" width="2.3" height="2.3"/>
				<rect x="37.4" y="31.8" transform="matrix(0.866 0.5 -0.5 0.866 21.6269 -14.8365)" class="st3" width="2.3" height="2.3"/>
				<rect x="39.3" y="32.9" transform="matrix(0.866 0.5 -0.5 0.866 22.4543 -15.6638)" class="st2" width="2.3" height="2.3"/>
				<rect x="40.5" y="31" transform="matrix(0.866 0.5 -0.5 0.866 21.6269 -16.4912)" class="st3" width="2.3" height="2.3"/>
				<rect x="41.6" y="29" transform="matrix(0.866 0.5 -0.5 0.866 20.7996 -17.3186)" class="st2" width="2.3" height="2.3"/>
				<rect x="42.7" y="27.1" transform="matrix(0.866 0.5 -0.5 0.866 19.9722 -18.146)" class="st3" width="2.3" height="2.3"/>
			</g>
		</g>
	</g>
</g>
</svg>
