<?xml version="1.0" encoding="utf-8"?>
<!-- Generator: Adobe Illustrator 19.2.1, SVG Export Plug-In . SVG Version: 6.00 Build 0)  -->
<svg version="1.1" id="Camada_1" xmlns="http://www.w3.org/2000/svg" xmlns:xlink="http://www.w3.org/1999/xlink" x="0px" y="0px"
	 viewBox="0 0 56.7 56.7" style="enable-background:new 0 0 56.7 56.7;" xml:space="preserve">
<style type="text/css">
	.st0{fill:#FFFFFF;}
	.st1{fill:#4600CC;}
	.st2{fill:#D34600;}
</style>
<g>
	<circle class="st0" cx="28.3" cy="28.3" r="28.3"/>
	<g>
		<circle class="st1" cx="28.3" cy="28.3" r="2.2"/>
		<path class="st2" d="M39.1,28.3c0.8-0.7,1.5-1.4,2.1-2c2.5-2.8,3.4-5.1,2.4-6.8c-0.4-0.8-1.5-1.6-3.9-1.6c-1.6,0-3.7,0.4-6,1.2
			c-0.2-1-0.5-2-0.7-2.8c-1.2-3.6-2.8-5.5-4.6-5.5c-1.9,0-3.5,1.9-4.6,5.5c-0.3,0.9-0.5,1.8-0.7,2.8c-2.3-0.7-4.4-1.2-6-1.2
			c-2.4,0-3.5,0.9-3.9,1.6c-0.9,1.6-0.1,4,2.4,6.8c0.6,0.7,1.3,1.4,2.1,2c-0.8,0.7-1.5,1.4-2.1,2c-2.5,2.8-3.4,5.1-2.4,6.8
			c0.4,0.8,1.5,1.6,3.9,1.6c1.6,0,3.7-0.4,6-1.2c0.2,1,0.5,2,0.7,2.8c1.2,3.6,2.8,5.5,4.6,5.5c1.9,0,3.5-1.9,4.6-5.5
			c0.3-0.9,0.5-1.8,0.7-2.8c2.3,0.7,4.4,1.2,6,1.2h0c2.4,0,3.5-0.9,3.9-1.6c0.9-1.6,0.1-4-2.4-6.8C40.5,29.7,39.8,29,39.1,28.3z
			 M17,37.1c-1.3,0-2.1-0.3-2.4-0.8c-0.4-0.7,0-2.3,2.2-4.8c0.6-0.7,1.3-1.4,2.1-2.1c1,0.8,2.1,1.6,3.3,2.4c0.1,1.4,0.2,2.8,0.5,4.1
			C20.5,36.7,18.5,37.1,17,37.1z M22.1,29.8c-0.7-0.5-1.3-0.9-1.9-1.4c0.6-0.5,1.2-0.9,1.9-1.4c0,0.5,0,0.9,0,1.4
			C22.1,28.8,22.1,29.3,22.1,29.8z M22.2,24.8c-1.2,0.8-2.3,1.6-3.3,2.4c-0.8-0.7-1.5-1.4-2.1-2.1c-2.2-2.5-2.6-4.1-2.2-4.8
			c0.3-0.5,1.2-0.8,2.4-0.8c1.5,0,3.5,0.4,5.7,1.1C22.5,22,22.3,23.4,22.2,24.8z M32.7,23.6c-0.4-0.2-0.8-0.5-1.2-0.7
			c-0.4-0.2-0.8-0.5-1.2-0.7c0.7-0.3,1.4-0.6,2.2-0.9C32.5,22.1,32.6,22.8,32.7,23.6z M28.3,12.4c1.2,0,2.8,2.6,3.8,7.2
			c-1.2,0.5-2.5,1-3.8,1.6c-1.3-0.6-2.5-1.2-3.8-1.6C25.5,15,27.1,12.4,28.3,12.4z M24.3,21.3c0.7,0.3,1.4,0.6,2.2,0.9
			c-0.4,0.2-0.8,0.4-1.2,0.7c-0.4,0.2-0.8,0.5-1.2,0.7C24.1,22.8,24.2,22.1,24.3,21.3z M24,33c0.4,0.2,0.8,0.5,1.2,0.7
			c0.4,0.2,0.8,0.5,1.2,0.7c-0.7,0.3-1.4,0.6-2.2,0.9C24.2,34.6,24.1,33.9,24,33z M28.3,44.3c-1.2,0-2.8-2.6-3.8-7.2
			c1.2-0.5,2.5-1,3.8-1.6c1.3,0.6,2.5,1.2,3.8,1.6C31.2,41.7,29.6,44.3,28.3,44.3z M32.4,35.4c-0.7-0.3-1.4-0.6-2.2-0.9
			c0.4-0.2,0.8-0.4,1.2-0.7c0.4-0.2,0.8-0.5,1.2-0.7C32.6,33.9,32.5,34.6,32.4,35.4z M32.8,30.9c-0.7,0.5-1.5,0.9-2.2,1.4
			c-0.8,0.4-1.5,0.8-2.3,1.2c-0.8-0.4-1.5-0.8-2.3-1.2c-0.8-0.4-1.5-0.9-2.2-1.4c0-0.8-0.1-1.7-0.1-2.6s0-1.8,0.1-2.6
			c0.7-0.5,1.5-0.9,2.2-1.4c0.8-0.4,1.5-0.9,2.3-1.2c0.8,0.4,1.5,0.8,2.3,1.2c0.8,0.4,1.5,0.9,2.2,1.4c0,0.8,0.1,1.7,0.1,2.6
			C32.9,29.2,32.9,30.1,32.8,30.9z M39.7,19.6c1.3,0,2.1,0.3,2.4,0.8c0.4,0.7,0,2.3-2.2,4.8c-0.6,0.7-1.3,1.4-2.1,2.1
			c-1-0.8-2.1-1.6-3.3-2.4c-0.1-1.4-0.3-2.8-0.5-4.1C36.2,20,38.2,19.6,39.7,19.6z M34.6,26.9c0.7,0.5,1.3,0.9,1.9,1.4
			c-0.6,0.5-1.2,0.9-1.9,1.4c0-0.5,0-0.9,0-1.4C34.6,27.9,34.6,27.4,34.6,26.9z M42.1,36.3c-0.3,0.5-1.2,0.8-2.4,0.8h0
			c-1.5,0-3.5-0.4-5.7-1.1c0.2-1.3,0.4-2.7,0.5-4.1c1.2-0.8,2.3-1.6,3.3-2.4C41.3,32.6,42.8,35.2,42.1,36.3z"/>
	</g>
</g>
</svg>
