<?xml version="1.0" encoding="utf-8"?>
<!-- Generator: Adobe Illustrator 19.2.1, SVG Export Plug-In . SVG Version: 6.00 Build 0)  -->
<svg version="1.1" id="Camada_1" xmlns="http://www.w3.org/2000/svg" xmlns:xlink="http://www.w3.org/1999/xlink" x="0px" y="0px"
	 viewBox="0 0 56.7 56.7" style="enable-background:new 0 0 56.7 56.7;" xml:space="preserve">
<style type="text/css">
	.st0{fill:#FFFFFF;}
	.st1{fill:#DB9600;}
	.st2{fill:#D34600;}
</style>
<g>
	<circle class="st0" cx="28.3" cy="28.3" r="28.3"/>
	<g>
		<polygon class="st1" points="38.1,42.2 18.6,42.2 19.3,22.3 37.4,22.3 		"/>
		<path class="st2" d="M31.7,24.5c-0.3,0-0.6-0.3-0.6-0.6v-5.5c0-1.5-1.2-2.8-2.8-2.8s-2.8,1.2-2.8,2.8v5.5c0,0.3-0.3,0.6-0.6,0.6
			c-0.3,0-0.6-0.3-0.6-0.6v-5.5c0-2.2,1.7-3.9,3.9-3.9s3.9,1.8,3.9,3.9v5.5C32.2,24.2,32,24.5,31.7,24.5z"/>
	</g>
</g>
</svg>
