<?xml version="1.0" encoding="utf-8"?>
<!-- Generator: Adobe Illustrator 19.2.1, SVG Export Plug-In . SVG Version: 6.00 Build 0)  -->
<svg version="1.1" id="Camada_1" xmlns="http://www.w3.org/2000/svg" xmlns:xlink="http://www.w3.org/1999/xlink" x="0px" y="0px"
	 viewBox="0 0 56.7 56.7" style="enable-background:new 0 0 56.7 56.7;" xml:space="preserve">
<style type="text/css">
	.st0{fill:#FFFFFF;}
	.st1{fill:#9A00CC;}
</style>
<g>
	<circle class="st0" cx="28.3" cy="28.3" r="28.3"/>
	<path class="st1" d="M26.2,15.7c-4.7,7.5-5.1,17.3,0,25.3c1.4,2.2,4.2,2.8,6.4,1.4l1-0.7c0.6-0.4,0.8-1.2,0.4-1.9l-0.9-1.4
		l-2.6-4.1c-0.4-0.6-1.2-0.8-1.9-0.4l-1,0.7c0,0-0.1,0-0.1,0.1c-2.6-3.4-2.9-8.1-0.5-11.9c0.2-0.3,0.3-0.5,0.5-0.7c0,0,0,0,0.1,0.1
		l1,0.7c0.6,0.4,1.5,0.2,1.9-0.4l2.6-4.1l0.9-1.4c0.4-0.6,0.2-1.5-0.4-1.9l-1-0.7C30.4,12.9,27.5,13.5,26.2,15.7z"/>
</g>
</svg>
