<?xml version="1.0" encoding="utf-8"?>
<!-- Generator: Adobe Illustrator 19.2.1, SVG Export Plug-In . SVG Version: 6.00 Build 0)  -->
<svg version="1.1" id="Camada_1" xmlns="http://www.w3.org/2000/svg" xmlns:xlink="http://www.w3.org/1999/xlink" x="0px" y="0px"
	 viewBox="0 0 56.7 56.7" style="enable-background:new 0 0 56.7 56.7;" xml:space="preserve">
<style type="text/css">
	.st0{fill:#FFFFFF;}
	.st1{fill:#DB9600;}
	.st2{fill:#D34600;}
</style>
<g>
	<circle class="st0" cx="28.3" cy="28.3" r="28.3"/>
	<g>
		<g>
			<g>
				<path class="st1" d="M22.6,17.9c-2.2,0-4.2-0.4-6.1-1.2c-0.7-0.3-1.4,0.2-1.4,0.9l0,9.7c0,4.1,3.2,7.6,7.3,7.7
					c4.2,0.1,7.6-3.3,7.6-7.5v-10c0-0.7-0.7-1.2-1.4-0.9C26.8,17.5,24.8,17.9,22.6,17.9z"/>
				<g>
					<g>
						<path class="st0" d="M21.2,25.3C21.2,25.4,21.2,25.4,21.2,25.3c0,0.2-0.1,0.3-0.3,0.3c-0.1,0-0.3-0.1-0.3-0.3
							c0-0.4-0.4-0.8-0.8-0.8c-0.4,0-0.8,0.4-0.8,0.8c0,0.1-0.1,0.3-0.3,0.3c-0.1,0-0.3-0.1-0.3-0.3c0-0.7,0.6-1.3,1.3-1.3
							C20.6,24,21.2,24.6,21.2,25.3C21.2,25.3,21.2,25.3,21.2,25.3z"/>
						<path class="st0" d="M26.6,25.3C26.6,25.4,26.6,25.4,26.6,25.3c0,0.2-0.1,0.3-0.3,0.3c-0.1,0-0.3-0.1-0.3-0.3
							c0-0.4-0.4-0.8-0.8-0.8c-0.4,0-0.8,0.4-0.8,0.8c0,0.1-0.1,0.3-0.3,0.3c-0.1,0-0.3-0.1-0.3-0.3c0-0.7,0.6-1.3,1.3-1.3
							C26,24,26.6,24.6,26.6,25.3C26.6,25.3,26.6,25.3,26.6,25.3z"/>
					</g>
					<path class="st0" d="M25.8,29.2c0,0,0-0.1,0-0.1c-0.1-0.3-0.3-0.5-0.6-0.5H20c-0.3,0-0.6,0.3-0.6,0.6c0,1.8,1.4,3.2,3.2,3.2
						c1.7,0,3.2-1.4,3.2-3.1C25.8,29.3,25.8,29.2,25.8,29.2z"/>
				</g>
			</g>
			<g>
				<path class="st2" d="M34.1,22.9c-2.2,0-4.2-0.4-6.1-1.2c-0.7-0.3-1.4,0.2-1.4,0.9l0,9.7c0,4.1,3.2,7.6,7.3,7.7
					c4.2,0.1,7.6-3.3,7.6-7.5v-10c0-0.7-0.7-1.2-1.4-0.9C38.3,22.4,36.3,22.9,34.1,22.9z"/>
				<g>
					<path class="st0" d="M32.7,29.2C32.7,29.2,32.7,29.2,32.7,29.2c0-0.2-0.1-0.3-0.3-0.3c-0.1,0-0.3,0.1-0.3,0.3
						c0,0.4-0.4,0.8-0.8,0.8c-0.4,0-0.8-0.4-0.8-0.8c0-0.1-0.1-0.3-0.3-0.3c-0.1,0-0.3,0.1-0.3,0.3c0,0.7,0.6,1.3,1.3,1.3
						C32.1,30.5,32.7,30,32.7,29.2C32.7,29.2,32.7,29.2,32.7,29.2z"/>
					<path class="st0" d="M38.1,29.2C38.1,29.2,38.1,29.2,38.1,29.2c0-0.2-0.1-0.3-0.3-0.3c-0.1,0-0.3,0.1-0.3,0.3
						c0,0.4-0.4,0.8-0.8,0.8c-0.4,0-0.8-0.4-0.8-0.8c0-0.1-0.1-0.3-0.3-0.3c-0.1,0-0.3,0.1-0.3,0.3c0,0.7,0.6,1.3,1.3,1.3
						C37.5,30.5,38.1,30,38.1,29.2C38.1,29.2,38.1,29.2,38.1,29.2z"/>
				</g>
				<path class="st0" d="M37.3,36.6c-0.1-1.7-1.5-3.1-3.2-3.1c-1.8,0-3.2,1.4-3.2,3.2c0,0.3,0.3,0.6,0.6,0.6h5.2
					c0.3,0,0.6-0.2,0.6-0.5c0,0,0-0.1,0-0.1C37.3,36.7,37.3,36.6,37.3,36.6z"/>
			</g>
		</g>
	</g>
</g>
</svg>
