<?xml version="1.0" encoding="utf-8"?>
<!-- Generator: Adobe Illustrator 19.2.1, SVG Export Plug-In . SVG Version: 6.00 Build 0)  -->
<svg version="1.1" id="Camada_1" xmlns="http://www.w3.org/2000/svg" xmlns:xlink="http://www.w3.org/1999/xlink" x="0px" y="0px"
	 viewBox="0 0 56.7 56.7" style="enable-background:new 0 0 56.7 56.7;" xml:space="preserve">
<style type="text/css">
	.st0{fill:#FFFFFF;}
	.st1{fill:#00CC88;}
	.st2{fill:#DB9600;}
	.st3{fill:#4600CC;}
</style>
<g>
	<circle class="st0" cx="28.3" cy="28.3" r="28.3"/>
	<g>
		<rect x="10.9" y="17.9" class="st1" width="35" height="21"/>
		<polygon class="st2" points="42.3,28.3 28.3,37.4 14.4,28.3 28.3,19.3 		"/>
		<path class="st3" d="M32.9,28.3c0,1.7-0.9,3.1-2.2,3.9c-0.5,0.3-1.2,0.5-1.8,0.6c-0.2,0-0.3,0-0.5,0c-2.5,0-4.5-2-4.5-4.5
			c0-0.7,0.2-1.4,0.5-2c0.7-1.5,2.3-2.5,4.1-2.5c0.5,0,0.9,0.1,1.4,0.2C31.5,24.6,32.9,26.3,32.9,28.3z"/>
	</g>
</g>
</svg>
