<?xml version="1.0" encoding="utf-8"?>
<!-- Generator: Adobe Illustrator 19.2.1, SVG Export Plug-In . SVG Version: 6.00 Build 0)  -->
<svg version="1.1" id="Camada_1" xmlns="http://www.w3.org/2000/svg" xmlns:xlink="http://www.w3.org/1999/xlink" x="0px" y="0px"
	 viewBox="0 0 56.7 56.7" style="enable-background:new 0 0 56.7 56.7;" xml:space="preserve">
<style type="text/css">
	.st0{fill:#FFFFFF;}
	.st1{fill:#00CC88;}
	.st2{fill:#9A00CC;}
</style>
<g>
	<circle class="st0" cx="28.3" cy="28.3" r="28.3"/>
	<g>
		<path class="st0" d="M45.4,28.3c0,1.7-0.3,3.4-0.7,4.9c-0.8,2.6-2.1,4.9-3.9,6.7c-2.3,2.4-5.2,4.1-8.5,4.9
			c-1.3,0.3-2.6,0.4-3.9,0.4c-1.3,0-2.6-0.2-3.9-0.4c-3.3-0.8-6.3-2.5-8.5-4.9c-1.8-1.9-3.1-4.2-3.9-6.7c-0.5-1.6-0.7-3.2-0.7-4.9
			s0.3-3.4,0.7-4.9c0.8-2.6,2.1-4.9,3.9-6.7c2.3-2.4,5.2-4.1,8.5-4.9c1.3-0.3,2.6-0.4,3.9-0.4c1.3,0,2.6,0.2,3.9,0.4
			c3.3,0.8,6.3,2.5,8.5,4.9c1.8,1.9,3.1,4.2,3.9,6.7C45.1,25,45.4,26.6,45.4,28.3z"/>
		<path class="st1" d="M24.9,32.3l-1.7-2.9c-0.4-0.6-0.4-1.4,0-2l1.7-2.9c0.4-0.6,1-1,1.7-1H30c0.7,0,1.4,0.4,1.7,1l1.7,2.9
			c0.4,0.6,0.4,1.4,0,2l-1.7,2.9c-0.4,0.6-1,1-1.7,1h-3.4C25.9,33.3,25.3,32.9,24.9,32.3z"/>
		<path class="st2" d="M16.4,37.2l-1.7-2.9c-0.4-0.6-0.4-1.4,0-2l1.7-2.9c0.4-0.6,1-1,1.7-1h3.4c0.7,0,1.4,0.4,1.7,1l1.7,2.9
			c0.4,0.6,0.4,1.4,0,2l-1.7,2.9c-0.4,0.6-1,1-1.7,1h-3.4C17.4,38.2,16.8,37.8,16.4,37.2z"/>
		<path class="st2" d="M16.4,27.4l-1.7-2.9c-0.4-0.6-0.4-1.4,0-2l1.7-2.9c0.4-0.6,1-1,1.7-1h3.4c0.7,0,1.4,0.4,1.7,1l1.7,2.9
			c0.4,0.6,0.4,1.4,0,2l-1.7,2.9c-0.4,0.6-1,1-1.7,1h-3.4C17.4,28.3,16.8,28,16.4,27.4z"/>
		<path class="st2" d="M24.9,42.1l-1.7-2.9c-0.4-0.6-0.4-1.4,0-2l1.7-2.9c0.4-0.6,1-1,1.7-1H30c0.7,0,1.4,0.4,1.7,1l1.7,2.9
			c0.4,0.6,0.4,1.4,0,2l-1.7,2.9c-0.4,0.6-1,1-1.7,1h-3.4C25.9,43.1,25.3,42.7,24.9,42.1z"/>
		<polygon class="st0" points="25.5,23.4 22.7,18.5 25.5,13.6 31.2,13.6 34,18.5 31.2,23.4 		"/>
		<path class="st2" d="M24.9,22.4l-1.7-2.9c-0.4-0.6-0.4-1.4,0-2l1.7-2.9c0.4-0.6,1-1,1.7-1H30c0.7,0,1.4,0.4,1.7,1l1.7,2.9
			c0.4,0.6,0.4,1.4,0,2l-1.7,2.9c-0.4,0.6-1,1-1.7,1h-3.4C25.9,23.4,25.3,23,24.9,22.4z"/>
		<path class="st2" d="M33.5,37.2l-1.7-2.9c-0.4-0.6-0.4-1.4,0-2l1.7-2.9c0.4-0.6,1-1,1.7-1h3.4c0.7,0,1.4,0.4,1.7,1l1.7,2.9
			c0.4,0.6,0.4,1.4,0,2l-1.7,2.9c-0.4,0.6-1,1-1.7,1h-3.4C34.5,38.2,33.8,37.8,33.5,37.2z"/>
		<path class="st2" d="M33.5,27.4l-1.7-2.9c-0.4-0.6-0.4-1.4,0-2l1.7-2.9c0.4-0.6,1-1,1.7-1h3.4c0.7,0,1.4,0.4,1.7,1l1.7,2.9
			c0.4,0.6,0.4,1.4,0,2l-1.7,2.9c-0.4,0.6-1,1-1.7,1h-3.4C34.5,28.3,33.8,28,33.5,27.4z"/>
		<path class="st1" d="M25,14.5l-1.8,3.2c0,0,0,0,0,0c0,0,0,0,0,0c0,0,0,0,0,0c-0.3,0.5-0.9,0.8-1.5,0.8H18c-0.6,0-1.2-0.3-1.5-0.9
			l-0.6-1c2.3-2.4,5.2-4.1,8.5-4.9l0.6,1C25.3,13.3,25.3,13.9,25,14.5z"/>
		<path class="st2" d="M16.5,19.4l-1.8,3.2c-0.3,0.5-0.9,0.9-1.5,0.9H12c0.8-2.6,2.1-4.9,3.9-6.7l0.6,1
			C16.8,18.2,16.8,18.8,16.5,19.4z"/>
		<path class="st2" d="M32.2,11.8l-0.6,1c-0.3,0.5-0.9,0.9-1.5,0.9h-3.7c-0.6,0-1.2-0.3-1.5-0.9l-0.6-1c1.3-0.3,2.6-0.4,3.9-0.4
			C29.7,11.3,31,11.5,32.2,11.8z"/>
		<path class="st1" d="M40.8,16.7l-0.6,1c-0.3,0.5-0.9,0.9-1.5,0.9H35c-0.6,0-1.2-0.3-1.5-0.8c0,0,0,0,0,0l-0.4-0.8l-1.4-2.4
			c0,0,0,0,0,0c0,0,0,0,0,0c-0.3-0.5-0.3-1.2,0-1.7l0.6-1C35.6,12.5,38.5,14.3,40.8,16.7z"/>
		<path class="st2" d="M44.7,23.4h-1.1c-0.6,0-1.2-0.3-1.5-0.9l-1.8-3.2c-0.3-0.5-0.3-1.2,0-1.7l0.6-1
			C42.5,18.6,43.9,20.9,44.7,23.4z"/>
		<path class="st1" d="M45.4,28.3c0,1.7-0.3,3.4-0.7,4.9h-1.1c-0.6,0-1.2-0.3-1.5-0.9l-1.8-3.2c-0.3-0.5-0.3-1.2,0-1.7l1.8-3.2
			c0.3-0.5,0.9-0.9,1.5-0.9h1.1C45.1,25,45.4,26.6,45.4,28.3z"/>
		<path class="st1" d="M16.5,29.2l-1.8,3.2c-0.3,0.5-0.9,0.9-1.5,0.9H12c-0.5-1.6-0.7-3.2-0.7-4.9s0.3-3.4,0.7-4.9h1.1
			c0.6,0,1.2,0.3,1.5,0.9l1.8,3.2C16.8,28,16.8,28.7,16.5,29.2z"/>
		<path class="st1" d="M25,44l-0.6,1c-3.3-0.8-6.3-2.5-8.5-4.9l0.6-1c0.3-0.5,0.9-0.9,1.5-0.9h3.7c0.6,0,1.2,0.3,1.5,0.9l1.8,3.2
			C25.3,42.8,25.3,43.4,25,44z"/>
		<path class="st2" d="M16.5,39l-0.6,1c-1.8-1.9-3.1-4.2-3.9-6.7h1.1c0.6,0,1.2,0.3,1.5,0.9l1.8,3.2C16.8,37.9,16.8,38.5,16.5,39z"
			/>
		<path class="st2" d="M32.2,44.9c-1.3,0.3-2.6,0.4-3.9,0.4c-1.3,0-2.6-0.2-3.9-0.4l0.6-1c0.3-0.5,0.9-0.9,1.5-0.9h3.7
			c0.6,0,1.2,0.3,1.5,0.9L32.2,44.9z"/>
		<path class="st1" d="M40.8,40c-2.3,2.4-5.2,4.1-8.5,4.9l-0.6-1c-0.3-0.5-0.3-1.2,0-1.7l1.8-3.2c0.3-0.5,0.9-0.9,1.5-0.9h3.7
			c0.6,0,1.2,0.3,1.5,0.9L40.8,40z"/>
		<path class="st2" d="M44.7,33.3c-0.8,2.6-2.1,4.9-3.9,6.7l-0.6-1c-0.3-0.5-0.3-1.2,0-1.7l1.8-3.2c0.3-0.5,0.9-0.9,1.5-0.9H44.7z"
			/>
	</g>
</g>
</svg>
