<?xml version="1.0" encoding="utf-8"?>
<!-- Generator: Adobe Illustrator 19.2.1, SVG Export Plug-In . SVG Version: 6.00 Build 0)  -->
<svg version="1.1" id="Camada_1" xmlns="http://www.w3.org/2000/svg" xmlns:xlink="http://www.w3.org/1999/xlink" x="0px" y="0px"
	 viewBox="0 0 56.7 56.7" style="enable-background:new 0 0 56.7 56.7;" xml:space="preserve">
<style type="text/css">
	.st0{fill:#FFFFFF;}
	.st1{fill:#D34600;}
	.st2{fill:#9A00CC;}
	.st3{fill:#4600CC;}
	.st4{fill:#DB9600;}
	.st5{fill:#00CC88;}
</style>
<g>
	<circle class="st0" cx="28.3" cy="28.3" r="28.3"/>
	<g>
		<g>
			<ellipse transform="matrix(0.7071 -0.7071 0.7071 0.7071 -24.3678 23.1165)" class="st1" cx="15.7" cy="41" rx="2.5" ry="2.5"/>
			<path class="st1" d="M24.2,39.2L19.8,40c0,0-0.1,0-0.1,0l-0.2,0c0,0-0.1,0-0.1,0c0,0-0.1,0-0.1,0c0,0-0.1,0-0.1,0
				c0,0-0.1,0-0.1,0c0,0-0.1,0-0.1,0c0,0-0.1,0-0.1,0c0,0-0.1,0-0.1,0c0,0-0.1,0-0.1,0c0,0-0.1,0-0.1,0c0,0-0.1,0-0.1-0.1
				c0,0-0.1,0-0.1,0c-0.1,0-0.1,0-0.1-0.1c0,0-0.1,0-0.1-0.1c0,0-0.1-0.1-0.1-0.1c0,0-0.1,0-0.1-0.1c0,0-0.1-0.1-0.1-0.1
				c0,0-0.1-0.1-0.1-0.1l-0.1-0.1l-0.1-0.1c0,0-0.1-0.1-0.1-0.1c0,0-0.1-0.1-0.1-0.1c0,0-0.1-0.1-0.1-0.1c0,0-0.1-0.1-0.1-0.1
				c0,0,0-0.1-0.1-0.1c0-0.1,0-0.1-0.1-0.1c0,0,0-0.1,0-0.1c0-0.1,0-0.1-0.1-0.1c0,0,0-0.1,0-0.1c0,0,0-0.1,0-0.1c0,0,0-0.1,0-0.1
				c0,0,0-0.1,0-0.1c0-0.1,0-0.1,0-0.1c0,0,0-0.1,0-0.1c0,0,0-0.1,0-0.1c0,0,0-0.1,0-0.1c0,0,0-0.1,0-0.1l0-0.2c0,0,0-0.1,0-0.1
				l0.7-4.4c0.1-0.4,0.5-0.7,0.9-0.6c0.4,0.1,0.7,0.5,0.6,0.9l-0.2,0.9l-0.1,0.5l-0.2,1.3l4.8-4.8c0.3-0.3,0.7-0.3,1-0.1
				c0,0,0.1,0.1,0.1,0.1c0.3,0.3,0.3,0.8,0,1.1l-2.5,2.5c-0.1,0.1-0.1,0.3,0,0.5c0.1,0.1,0.3,0.1,0.5,0l2.5-2.5
				c0.3-0.3,0.8-0.3,1.1,0c0,0,0.1,0.1,0.1,0.1c0.2,0.3,0.2,0.7-0.1,1l-4.8,4.8l1.3-0.2l0.5-0.1l0.9-0.2c0.4-0.1,0.8,0.2,0.9,0.6
				C24.9,38.8,24.7,39.2,24.2,39.2z"/>
		</g>
		<g>
			<ellipse class="st2" cx="10.5" cy="28.3" rx="2.5" ry="2.5"/>
			<path class="st2" d="M17.7,33.1l-3.6-2.6c0,0,0,0-0.1,0l-0.1-0.1c0,0-0.1-0.1-0.1-0.1c0,0-0.1-0.1-0.1-0.1c0,0-0.1-0.1-0.1-0.1
				c0,0-0.1-0.1-0.1-0.1c0,0-0.1-0.1-0.1-0.1c0,0,0-0.1-0.1-0.1c0,0-0.1-0.1-0.1-0.1c0,0,0-0.1-0.1-0.1c0,0,0-0.1-0.1-0.1
				c0,0,0-0.1-0.1-0.1c0,0,0-0.1,0-0.1c0-0.1,0-0.1-0.1-0.1c0,0,0-0.1,0-0.1c0,0,0-0.1,0-0.1c0,0,0-0.1,0-0.1c0,0,0-0.1,0-0.1
				c0,0,0-0.1,0-0.1v-0.1v-0.1c0,0,0-0.1,0-0.1c0,0,0-0.1,0-0.1c0,0,0-0.1,0-0.1c0-0.1,0-0.1,0-0.1c0,0,0-0.1,0-0.1
				c0-0.1,0-0.1,0.1-0.1c0,0,0-0.1,0-0.1c0-0.1,0-0.1,0.1-0.1c0,0,0-0.1,0.1-0.1c0,0,0-0.1,0.1-0.1c0,0,0-0.1,0.1-0.1
				c0,0,0-0.1,0.1-0.1c0,0,0.1-0.1,0.1-0.1c0,0,0.1-0.1,0.1-0.1c0,0,0.1-0.1,0.1-0.1c0,0,0.1-0.1,0.1-0.1c0,0,0.1-0.1,0.1-0.1
				l0.1-0.1c0,0,0,0,0.1,0l3.6-2.6c0.3-0.2,0.8-0.2,1,0.2c0.2,0.3,0.2,0.8-0.2,1.1l-0.8,0.6l-0.4,0.3l-1.1,0.8h6.8
				c0.4,0,0.7,0.3,0.8,0.6c0,0.1,0,0.1,0,0.2c0,0.4-0.4,0.8-0.8,0.8h-3.6c-0.2,0-0.3,0.1-0.3,0.3s0.1,0.3,0.3,0.3h3.6
				c0.4,0,0.8,0.4,0.8,0.8c0,0.1,0,0.1,0,0.2c-0.1,0.4-0.4,0.6-0.8,0.6h-6.8l1.1,0.8l0.4,0.3l0.8,0.6c0.3,0.2,0.4,0.7,0.2,1.1
				C18.5,33.3,18.1,33.4,17.7,33.1z"/>
		</g>
		<g>
			<ellipse transform="matrix(0.7071 -0.7071 0.7071 0.7071 -6.5115 15.7202)" class="st3" cx="15.7" cy="15.7" rx="2.5" ry="2.5"/>
			<path class="st3" d="M17.5,24.2l-0.7-4.4c0,0,0-0.1,0-0.1l0-0.2c0,0,0-0.1,0-0.1c0,0,0-0.1,0-0.1c0,0,0-0.1,0-0.1
				c0,0,0-0.1,0-0.1c0,0,0-0.1,0-0.1c0,0,0-0.1,0-0.1c0,0,0-0.1,0-0.1c0,0,0-0.1,0-0.1c0,0,0-0.1,0-0.1c0,0,0-0.1,0.1-0.1
				c0,0,0-0.1,0-0.1c0-0.1,0-0.1,0.1-0.1c0,0,0-0.1,0.1-0.1c0,0,0.1-0.1,0.1-0.1c0,0,0-0.1,0.1-0.1c0,0,0.1-0.1,0.1-0.1
				c0,0,0.1-0.1,0.1-0.1l0.1-0.1l0.1-0.1c0,0,0.1-0.1,0.1-0.1c0,0,0.1-0.1,0.1-0.1c0,0,0.1-0.1,0.1-0.1c0,0,0.1-0.1,0.1-0.1
				c0,0,0.1,0,0.1-0.1c0.1,0,0.1,0,0.1-0.1c0,0,0.1,0,0.1,0c0.1,0,0.1,0,0.1-0.1c0,0,0.1,0,0.1,0c0,0,0.1,0,0.1,0c0,0,0.1,0,0.1,0
				c0,0,0.1,0,0.1,0c0.1,0,0.1,0,0.1,0c0,0,0.1,0,0.1,0c0,0,0.1,0,0.1,0c0,0,0.1,0,0.1,0c0,0,0.1,0,0.1,0l0.2,0c0,0,0.1,0,0.1,0
				l4.4,0.7c0.4,0.1,0.7,0.5,0.6,0.9c-0.1,0.4-0.5,0.7-0.9,0.6l-0.9-0.2l-0.5-0.1l-1.3-0.2l4.8,4.8c0.3,0.3,0.3,0.7,0.1,1
				c0,0-0.1,0.1-0.1,0.1c-0.3,0.3-0.8,0.3-1.1,0l-2.5-2.5c-0.1-0.1-0.3-0.1-0.5,0s-0.1,0.3,0,0.5l2.5,2.5c0.3,0.3,0.3,0.8,0,1.1
				c0,0-0.1,0.1-0.1,0.1c-0.3,0.2-0.7,0.2-1-0.1l-4.8-4.8l0.2,1.3l0.1,0.5l0.2,0.9c0.1,0.4-0.2,0.8-0.6,0.9
				C17.9,24.9,17.5,24.7,17.5,24.2z"/>
		</g>
		<g>
			<ellipse class="st4" cx="28.3" cy="10.5" rx="2.5" ry="2.5"/>
			<path class="st4" d="M23.6,17.7l2.6-3.6c0,0,0,0,0-0.1l0.1-0.1c0,0,0.1-0.1,0.1-0.1c0,0,0.1-0.1,0.1-0.1c0,0,0.1-0.1,0.1-0.1
				c0,0,0.1-0.1,0.1-0.1c0,0,0.1-0.1,0.1-0.1c0,0,0.1,0,0.1-0.1c0,0,0.1-0.1,0.1-0.1c0,0,0.1,0,0.1-0.1c0,0,0.1,0,0.1-0.1
				c0,0,0.1,0,0.1-0.1c0,0,0.1,0,0.1,0c0.1,0,0.1,0,0.1-0.1c0,0,0.1,0,0.1,0c0,0,0.1,0,0.1,0c0,0,0.1,0,0.1,0c0,0,0.1,0,0.1,0
				c0,0,0.1,0,0.1,0h0.1h0.1c0,0,0.1,0,0.1,0c0,0,0.1,0,0.1,0c0,0,0.1,0,0.1,0c0.1,0,0.1,0,0.1,0c0,0,0.1,0,0.1,0
				c0.1,0,0.1,0,0.1,0.1c0,0,0.1,0,0.1,0c0.1,0,0.1,0,0.1,0.1c0,0,0.1,0,0.1,0.1c0,0,0.1,0,0.1,0.1c0,0,0.1,0,0.1,0.1
				c0,0,0.1,0,0.1,0.1c0,0,0.1,0.1,0.1,0.1c0,0,0.1,0.1,0.1,0.1c0,0,0.1,0.1,0.1,0.1c0,0,0.1,0.1,0.1,0.1c0,0,0.1,0.1,0.1,0.1
				l0.1,0.1c0,0,0,0,0,0.1l2.6,3.6c0.2,0.3,0.2,0.8-0.2,1c-0.3,0.2-0.8,0.2-1.1-0.2l-0.6-0.8L31,17.4l-0.8-1.1v6.8
				c0,0.4-0.3,0.7-0.6,0.8c-0.1,0-0.1,0-0.2,0c-0.4,0-0.8-0.4-0.8-0.8v-3.6c0-0.2-0.1-0.3-0.3-0.3S28,19.4,28,19.6v3.6
				c0,0.4-0.4,0.8-0.8,0.8c-0.1,0-0.1,0-0.2,0c-0.4-0.1-0.6-0.4-0.6-0.8v-6.8l-0.8,1.1l-0.3,0.4l-0.6,0.8c-0.2,0.3-0.7,0.4-1.1,0.2
				C23.4,18.5,23.3,18.1,23.6,17.7z"/>
		</g>
		<g>
			<ellipse transform="matrix(0.7071 -0.7071 0.7071 0.7071 0.8848 33.5764)" class="st1" cx="41" cy="15.7" rx="2.5" ry="2.5"/>
			<path class="st1" d="M32.5,17.5l4.4-0.7c0,0,0.1,0,0.1,0l0.2,0c0,0,0.1,0,0.1,0c0,0,0.1,0,0.1,0c0,0,0.1,0,0.1,0c0,0,0.1,0,0.1,0
				c0,0,0.1,0,0.1,0c0,0,0.1,0,0.1,0c0,0,0.1,0,0.1,0c0,0,0.1,0,0.1,0c0,0,0.1,0,0.1,0c0,0,0.1,0,0.1,0.1c0,0,0.1,0,0.1,0
				c0.1,0,0.1,0,0.1,0.1c0,0,0.1,0,0.1,0.1c0,0,0.1,0.1,0.1,0.1c0,0,0.1,0,0.1,0.1c0,0,0.1,0.1,0.1,0.1c0,0,0.1,0.1,0.1,0.1l0.1,0.1
				l0.1,0.1c0,0,0.1,0.1,0.1,0.1c0,0,0.1,0.1,0.1,0.1c0,0,0.1,0.1,0.1,0.1c0,0,0.1,0.1,0.1,0.1c0,0,0,0.1,0.1,0.1
				c0,0.1,0,0.1,0.1,0.1c0,0,0,0.1,0,0.1c0,0.1,0,0.1,0.1,0.1c0,0,0,0.1,0,0.1c0,0,0,0.1,0,0.1c0,0,0,0.1,0,0.1c0,0,0,0.1,0,0.1
				c0,0.1,0,0.1,0,0.1c0,0,0,0.1,0,0.1c0,0,0,0.1,0,0.1c0,0,0,0.1,0,0.1c0,0,0,0.1,0,0.1l0,0.2c0,0,0,0.1,0,0.1l-0.7,4.4
				c-0.1,0.4-0.5,0.7-0.9,0.6c-0.4-0.1-0.7-0.5-0.6-0.9l0.2-0.9l0.1-0.5l0.2-1.3L33.4,26c-0.3,0.3-0.7,0.3-1,0.1
				c0,0-0.1-0.1-0.1-0.1c-0.3-0.3-0.3-0.8,0-1.1l2.5-2.5c0.1-0.1,0.1-0.3,0-0.5c-0.1-0.1-0.3-0.1-0.5,0l-2.5,2.5
				c-0.3,0.3-0.8,0.3-1.1,0c0,0-0.1-0.1-0.1-0.1c-0.2-0.3-0.2-0.7,0.1-1l4.8-4.8l-1.3,0.2l-0.5,0.1l-0.9,0.2
				c-0.4,0.1-0.8-0.2-0.9-0.6C31.8,17.9,32,17.5,32.5,17.5z"/>
		</g>
		<g>
			<ellipse class="st2" cx="46.2" cy="28.3" rx="2.5" ry="2.5"/>
			<path class="st2" d="M39,23.6l3.6,2.6c0,0,0,0,0.1,0l0.1,0.1c0,0,0.1,0.1,0.1,0.1c0,0,0.1,0.1,0.1,0.1c0,0,0.1,0.1,0.1,0.1
				c0,0,0.1,0.1,0.1,0.1c0,0,0.1,0.1,0.1,0.1c0,0,0,0.1,0.1,0.1c0,0,0.1,0.1,0.1,0.1c0,0,0,0.1,0.1,0.1c0,0,0,0.1,0.1,0.1
				c0,0,0,0.1,0.1,0.1c0,0,0,0.1,0,0.1c0,0.1,0,0.1,0.1,0.1c0,0,0,0.1,0,0.1c0,0,0,0.1,0,0.1c0,0,0,0.1,0,0.1c0,0,0,0.1,0,0.1
				c0,0,0,0.1,0,0.1v0.1v0.1c0,0,0,0.1,0,0.1c0,0,0,0.1,0,0.1c0,0,0,0.1,0,0.1c0,0.1,0,0.1,0,0.1c0,0,0,0.1,0,0.1
				c0,0.1,0,0.1-0.1,0.1c0,0,0,0.1,0,0.1c0,0.1,0,0.1-0.1,0.1c0,0,0,0.1-0.1,0.1c0,0,0,0.1-0.1,0.1c0,0,0,0.1-0.1,0.1
				c0,0,0,0.1-0.1,0.1c0,0-0.1,0.1-0.1,0.1c0,0-0.1,0.1-0.1,0.1c0,0-0.1,0.1-0.1,0.1c0,0-0.1,0.1-0.1,0.1c0,0-0.1,0.1-0.1,0.1
				l-0.1,0.1c0,0,0,0-0.1,0L39,33.1c-0.3,0.2-0.8,0.2-1-0.2c-0.2-0.3-0.2-0.8,0.2-1.1l0.8-0.6l0.4-0.3l1.1-0.8h-6.8
				c-0.4,0-0.7-0.3-0.8-0.6c0-0.1,0-0.1,0-0.2c0-0.4,0.4-0.8,0.8-0.8h3.6c0.2,0,0.3-0.1,0.3-0.3S37.3,28,37.1,28h-3.6
				c-0.4,0-0.8-0.4-0.8-0.8c0-0.1,0-0.1,0-0.2c0.1-0.4,0.4-0.6,0.8-0.6h6.8l-1.1-0.8l-0.4-0.3l-0.8-0.6c-0.3-0.2-0.4-0.7-0.2-1.1
				C38.1,23.4,38.6,23.3,39,23.6z"/>
		</g>
		<g>
			<ellipse transform="matrix(0.7071 -0.7071 0.7071 0.7071 -16.9715 40.9727)" class="st3" cx="41" cy="41" rx="2.5" ry="2.5"/>
			<path class="st3" d="M39.2,32.5l0.7,4.4c0,0,0,0.1,0,0.1l0,0.2c0,0,0,0.1,0,0.1c0,0,0,0.1,0,0.1c0,0,0,0.1,0,0.1c0,0,0,0.1,0,0.1
				c0,0,0,0.1,0,0.1c0,0,0,0.1,0,0.1c0,0,0,0.1,0,0.1c0,0,0,0.1,0,0.1c0,0,0,0.1,0,0.1c0,0,0,0.1-0.1,0.1c0,0,0,0.1,0,0.1
				c0,0.1,0,0.1-0.1,0.1c0,0,0,0.1-0.1,0.1c0,0-0.1,0.1-0.1,0.1c0,0,0,0.1-0.1,0.1c0,0-0.1,0.1-0.1,0.1c0,0-0.1,0.1-0.1,0.1
				l-0.1,0.1l-0.1,0.1c0,0-0.1,0.1-0.1,0.1c0,0-0.1,0.1-0.1,0.1c0,0-0.1,0.1-0.1,0.1c0,0-0.1,0.1-0.1,0.1c0,0-0.1,0-0.1,0.1
				c-0.1,0-0.1,0-0.1,0.1c0,0-0.1,0-0.1,0c-0.1,0-0.1,0-0.1,0.1c0,0-0.1,0-0.1,0c0,0-0.1,0-0.1,0c0,0-0.1,0-0.1,0c0,0-0.1,0-0.1,0
				c-0.1,0-0.1,0-0.1,0c0,0-0.1,0-0.1,0c0,0-0.1,0-0.1,0c0,0-0.1,0-0.1,0c0,0-0.1,0-0.1,0l-0.2,0c0,0-0.1,0-0.1,0l-4.4-0.7
				c-0.4-0.1-0.7-0.5-0.6-0.9c0.1-0.4,0.5-0.7,0.9-0.6l0.9,0.2l0.5,0.1l1.3,0.2l-4.8-4.8c-0.3-0.3-0.3-0.7-0.1-1
				c0,0,0.1-0.1,0.1-0.1c0.3-0.3,0.8-0.3,1.1,0l2.5,2.5c0.1,0.1,0.3,0.1,0.5,0c0.1-0.1,0.1-0.3,0-0.5l-2.5-2.5
				c-0.3-0.3-0.3-0.8,0-1.1c0,0,0.1-0.1,0.1-0.1c0.3-0.2,0.7-0.2,1,0.1l4.8,4.8L38,34.2l-0.1-0.5l-0.2-0.9c-0.1-0.4,0.2-0.8,0.6-0.9
				C38.8,31.8,39.2,32,39.2,32.5z"/>
		</g>
		<g>
			<ellipse class="st5" cx="28.3" cy="46.2" rx="2.5" ry="2.5"/>
			<path class="st5" d="M33.1,39l-2.6,3.6c0,0,0,0,0,0.1l-0.1,0.1c0,0-0.1,0.1-0.1,0.1c0,0-0.1,0.1-0.1,0.1c0,0-0.1,0.1-0.1,0.1
				c0,0-0.1,0.1-0.1,0.1c0,0-0.1,0.1-0.1,0.1c0,0-0.1,0-0.1,0.1c0,0-0.1,0.1-0.1,0.1c0,0-0.1,0-0.1,0.1c0,0-0.1,0-0.1,0.1
				c0,0-0.1,0-0.1,0.1c0,0-0.1,0-0.1,0c-0.1,0-0.1,0-0.1,0.1c0,0-0.1,0-0.1,0c0,0-0.1,0-0.1,0c0,0-0.1,0-0.1,0c0,0-0.1,0-0.1,0
				c0,0-0.1,0-0.1,0h-0.1h-0.1c0,0-0.1,0-0.1,0c0,0-0.1,0-0.1,0c0,0-0.1,0-0.1,0c-0.1,0-0.1,0-0.1,0c0,0-0.1,0-0.1,0
				c-0.1,0-0.1,0-0.1-0.1c0,0-0.1,0-0.1,0c-0.1,0-0.1,0-0.1-0.1c0,0-0.1,0-0.1-0.1c0,0-0.1,0-0.1-0.1c0,0-0.1,0-0.1-0.1
				c0,0-0.1,0-0.1-0.1c0,0-0.1-0.1-0.1-0.1c0,0-0.1-0.1-0.1-0.1c0,0-0.1-0.1-0.1-0.1c0,0-0.1-0.1-0.1-0.1c0,0-0.1-0.1-0.1-0.1
				l-0.1-0.1c0,0,0,0,0-0.1L23.6,39c-0.2-0.3-0.2-0.8,0.2-1c0.3-0.2,0.8-0.2,1.1,0.2l0.6,0.8l0.3,0.4l0.8,1.1v-6.8
				c0-0.4,0.3-0.7,0.6-0.8c0.1,0,0.1,0,0.2,0c0.4,0,0.8,0.4,0.8,0.8v3.6c0,0.2,0.1,0.3,0.3,0.3s0.3-0.1,0.3-0.3v-3.6
				c0-0.4,0.4-0.8,0.8-0.8c0.1,0,0.1,0,0.2,0c0.4,0.1,0.6,0.4,0.6,0.8v6.8l0.8-1.1l0.3-0.4l0.6-0.8c0.2-0.3,0.7-0.4,1.1-0.2
				C33.3,38.1,33.4,38.6,33.1,39z"/>
		</g>
	</g>
</g>
</svg>
