<?xml version="1.0" encoding="utf-8"?>
<!-- Generator: Adobe Illustrator 19.2.1, SVG Export Plug-In . SVG Version: 6.00 Build 0)  -->
<svg version="1.1" id="Camada_1" xmlns="http://www.w3.org/2000/svg" xmlns:xlink="http://www.w3.org/1999/xlink" x="0px" y="0px"
	 viewBox="0 0 56.7 56.7" style="enable-background:new 0 0 56.7 56.7;" xml:space="preserve">
<style type="text/css">
	.st0{fill:#FFFFFF;}
	.st1{fill:#9A00CC;}
	.st2{fill:#727176;}
	.st3{fill:#DB9600;}
	.st4{fill:#211915;}
	.st5{fill:#87868A;}
	.st6{fill:#D34600;}
	.st7{fill:#FCD7A2;}
</style>
<g>
	<circle class="st0" cx="28.3" cy="28.3" r="28.3"/>
	<g>
		<g>
			<rect x="15.4" y="15.8" class="st1" width="18.6" height="25.1"/>
			<g>
				<rect x="13.7" y="16.7" class="st2" width="2.9" height="1"/>
				<rect x="13.7" y="18.7" class="st2" width="2.9" height="1"/>
				<rect x="13.7" y="20.7" class="st2" width="2.9" height="1"/>
				<rect x="13.7" y="22.8" class="st2" width="2.9" height="1"/>
				<rect x="13.7" y="24.8" class="st2" width="2.9" height="1"/>
				<rect x="13.7" y="26.8" class="st2" width="2.9" height="1"/>
				<rect x="13.7" y="28.9" class="st2" width="2.9" height="1"/>
				<rect x="13.7" y="30.9" class="st2" width="2.9" height="1"/>
				<rect x="13.7" y="32.9" class="st2" width="2.9" height="1"/>
				<rect x="13.7" y="35" class="st2" width="2.9" height="1"/>
				<rect x="13.7" y="37" class="st2" width="2.9" height="1"/>
				<rect x="13.7" y="39" class="st2" width="2.9" height="1"/>
			</g>
		</g>
		<g>
			<rect x="39.8" y="21.5" class="st3" width="3" height="15"/>
			<polygon class="st4" points="41.7,19.3 40.9,19.3 41.3,18.3 			"/>
			<rect x="39.6" y="36.5" class="st5" width="3.4" height="0.6"/>
			<rect x="39.7" y="37.1" class="st5" width="3.3" height="0.6"/>
			<rect x="39.6" y="37.7" class="st5" width="3.4" height="0.6"/>
			<rect x="39.7" y="38.3" class="st5" width="3.3" height="0.6"/>
			<path class="st6" d="M41.7,40.4h-0.9c-0.6,0-1.1-0.5-1.1-1.1v-0.5h3v0.5C42.8,39.9,42.3,40.4,41.7,40.4z"/>
			<path class="st7" d="M41.7,19.3h-0.9l-1.1,2.3h0c0,0.2,0.2,0.4,0.4,0.4c0.2,0,0.4-0.2,0.4-0.4c0,0.2,0.2,0.4,0.4,0.4
				s0.4-0.2,0.4-0.4c0,0.2,0.2,0.4,0.4,0.4c0.2,0,0.4-0.2,0.4-0.4c0,0.2,0.2,0.4,0.4,0.4s0.4-0.2,0.4-0.4h0L41.7,19.3z"/>
		</g>
	</g>
</g>
</svg>
