<svg id="Camada_1" data-name="Camada 1" xmlns="http://www.w3.org/2000/svg" viewBox="0 0 56.69 56.69"><defs><style>.cls-1{fill:#fff;}.cls-2{fill:#db9600;}.cls-3{fill:none;stroke:#fff;stroke-linecap:round;stroke-miterlimit:10;stroke-width:0.28px;}.cls-4{fill:#87868a;}.cls-5{fill:#5d5d5d;}</style></defs><title>energia</title><circle class="cls-1" cx="28.35" cy="28.35" r="28.35"/><path class="cls-2" d="M16.69,33.7A11.61,11.61,0,0,1,20,25.53a8.72,8.72,0,0,0,2.49-6.12H34.18a9,9,0,0,0,2.56,6.2A11.66,11.66,0,1,1,16.69,33.7Z" transform="translate(0 0)"/><path class="cls-3" d="M30.78,24.54a0.89,0.89,0,1,1-.89.89" transform="translate(0 0)"/><circle class="cls-3" cx="28.35" cy="25.43" r="0.89"/><line class="cls-3" x1="30.78" y1="24.54" x2="28.35" y2="24.54"/><line class="cls-3" x1="29.88" y1="25.43" x2="29.88" y2="19.41"/><path class="cls-3" d="M25.92,24.54a0.89,0.89,0,1,0,.89.89" transform="translate(0 0)"/><line class="cls-3" x1="25.92" y1="24.54" x2="28.35" y2="24.54"/><line class="cls-3" x1="26.81" y1="25.43" x2="26.81" y2="19.41"/><path class="cls-4" d="M22.52,19.41V17.17c0-.15,0-0.3,0-0.45H34.16c0,0.15,0,.3,0,0.45v2.24H22.52Z" transform="translate(0 0)"/><path class="cls-4" d="M23.44,14a5.67,5.67,0,0,1,.79-1,5.83,5.83,0,0,1,9,1H23.44Z" transform="translate(0 0)"/><path class="cls-5" d="M22.54,16.72a5.75,5.75,0,0,1,.9-2.69h9.82a5.72,5.72,0,0,1,.9,2.69H22.54Z" transform="translate(0 0)"/></svg>