<?xml version="1.0" encoding="utf-8"?>
<!-- Generator: Adobe Illustrator 19.2.1, SVG Export Plug-In . SVG Version: 6.00 Build 0)  -->
<svg version="1.1" id="Camada_1" xmlns="http://www.w3.org/2000/svg" xmlns:xlink="http://www.w3.org/1999/xlink" x="0px" y="0px"
	 viewBox="0 0 56.7 56.7" style="enable-background:new 0 0 56.7 56.7;" xml:space="preserve">
<style type="text/css">
	.st0{fill:#FFFFFF;}
	.st1{fill:#4600CC;}
	.st2{fill:#00CC88;}
</style>
<g>
	<circle class="st0" cx="28.3" cy="28.3" r="28.3"/>
	<g>
		<path class="st1" d="M45.2,28.3c0,6.1-3.3,11.5-8.2,14.5c-2,1.2-4.3,2-6.8,2.3c-0.6,0.1-1.2,0.1-1.8,0.1
			c-9.3,0-16.8-7.5-16.8-16.8c0-2.7,0.6-5.2,1.7-7.5c2.7-5.6,8.5-9.4,15.1-9.4c1.8,0,3.5,0.3,5.1,0.8C40.3,14.5,45.2,20.8,45.2,28.3
			z"/>
		<path class="st2" d="M37.6,29.5c-2.9,0.6-6.5,1.3-8.2,1.6c-1.7,0.2-3.8-1.5-6.1-2.7c-2.3-1.2-3.7-3.3-1.8-4.7
			c1.8-1.3,5.5,3.3,6.7,1.8c1.2-1.5,0.4-2.8,2-6c1.6-3.2,1.7-2.6,2.9-5.3c0,0,0,0,0,0c0.4-1-0.2-2.1-1.2-2.4
			c-1.1-0.2-2.3-0.4-3.5-0.4c-6.3,0-11.8,3.5-14.7,8.6c-0.3,0.5-0.3,1.1,0,1.7c0.4,0.8,1,1.7,1.7,2.6c2.5,2.9,5,4.2,9.1,6.6
			c4,2.4,3.4,3.6,2.4,4.7c-1,1.1-3.3,5.1,0.4,7.4c1.3,0.8,2.1,1.2,2.5,1.6c0.4,0.3,0.9,0.5,1.4,0.4c1.9-0.3,3.7-1,5.3-1.9
			c0.3-0.2,0.5-0.4,0.7-0.8c0.4-0.8,0.7-1.6,1.1-2.6C40,35,40.9,28.7,37.6,29.5z"/>
	</g>
</g>
</svg>
