<?xml version="1.0" encoding="utf-8"?>
<!-- Generator: Adobe Illustrator 19.2.1, SVG Export Plug-In . SVG Version: 6.00 Build 0)  -->
<svg version="1.1" id="Camada_1" xmlns="http://www.w3.org/2000/svg" xmlns:xlink="http://www.w3.org/1999/xlink" x="0px" y="0px"
	 viewBox="0 0 56.7 56.7" style="enable-background:new 0 0 56.7 56.7;" xml:space="preserve">
<style type="text/css">
	.st0{fill:#FFFFFF;}
	.st1{fill:#4600CC;}
	.st2{fill:#DB9600;}
</style>
<circle class="st0" cx="28.3" cy="28.3" r="28.3"/>
<g>
	<g>
		<polygon class="st1" points="36.1,27.4 36.1,23.2 26.2,27.4 26.2,23.2 16.4,27.4 16.4,22.8 15.2,22.8 15.2,17 15.6,17 15.6,15.8 
			11.5,15.8 11.5,17 11.8,17 11.8,22.8 10.7,22.8 10.7,40.9 16.4,40.9 46,40.9 46,37.3 46,27.4 46,23.2 		"/>
		<g>
			<rect x="36.4" y="31.5" class="st2" width="2.4" height="2.4"/>
			<rect x="39.5" y="31.5" class="st2" width="2.4" height="2.4"/>
			<rect x="30.4" y="31.5" class="st2" width="2.4" height="2.4"/>
			<rect x="33.4" y="31.5" class="st2" width="2.4" height="2.4"/>
			<rect x="36.4" y="34.5" class="st2" width="2.4" height="2.4"/>
			<rect x="39.5" y="34.5" class="st2" width="2.4" height="2.4"/>
			<rect x="30.4" y="34.5" class="st2" width="2.4" height="2.4"/>
			<rect x="33.4" y="34.5" class="st2" width="2.4" height="2.4"/>
		</g>
	</g>
</g>
</svg>
