<?xml version="1.0" encoding="utf-8"?>
<!-- Generator: Adobe Illustrator 19.2.1, SVG Export Plug-In . SVG Version: 6.00 Build 0)  -->
<svg version="1.1" id="Camada_1" xmlns="http://www.w3.org/2000/svg" xmlns:xlink="http://www.w3.org/1999/xlink" x="0px" y="0px"
	 viewBox="0 0 56.7 56.7" style="enable-background:new 0 0 56.7 56.7;" xml:space="preserve">
<style type="text/css">
	.st0{fill:#FFFFFF;}
	.st1{clip-path:url(#SVGID_2_);}
	.st2{fill:#D34600;}
	.st3{fill:#4600CC;}
	.st4{fill:#00CC88;}
	.st5{fill:#DB9600;}
	.st6{fill:#9A00CC;}
	.st7{fill:#C64832;}
	.st8{fill:#58A87D;}
</style>
<g>
	<circle class="st0" cx="28.3" cy="28.3" r="28.3"/>
	<g>
		<defs>
			<circle id="SVGID_1_" cx="28.3" cy="28.3" r="28.3"/>
		</defs>
		<clipPath id="SVGID_2_">
			<use xlink:href="#SVGID_1_"  style="overflow:visible;"/>
		</clipPath>
		<g class="st1">
			<g>
				<g>
					<g>
						<g>
							<polygon class="st2" points="22.1,33.4 37.3,33.4 31.3,30.2 16.1,30.2 							"/>
							<polygon class="st2" points="23,18.4 33.3,18.4 29.2,16.2 18.9,16.2 							"/>
							<polygon class="st2" points="23.9,9.2 30.2,9.2 27.7,7.8 21.5,7.8 							"/>
						</g>
						<g>
							<rect x="22.1" y="33.4" class="st3" width="15.3" height="20.5"/>
							<rect x="23" y="18.4" class="st3" width="10.4" height="14"/>
							<rect x="23.9" y="9.2" class="st3" width="6.2" height="8.4"/>
						</g>
						<g>
							<polygon class="st4" points="16.1,50.7 22.1,53.9 22.1,33.4 16.1,30.2 							"/>
							<polygon class="st4" points="18.9,30.2 23,32.4 23,18.4 18.9,16.2 							"/>
							<polygon class="st4" points="21.5,16.2 23.9,17.5 23.9,9.2 21.5,7.8 							"/>
						</g>
						<g>
							<g>
								
									<rect x="33.9" y="34.9" transform="matrix(-1 -4.078749e-011 4.078749e-011 -1 69.5716 71.3967)" class="st5" width="1.7" height="1.5"/>
								
									<rect x="30.5" y="34.9" transform="matrix(-1 -4.293422e-011 4.293422e-011 -1 62.7929 71.3967)" class="st5" width="1.7" height="1.5"/>
								
									<rect x="27.2" y="34.9" transform="matrix(-1 -4.722768e-011 4.722768e-011 -1 56.0142 71.3967)" class="st5" width="1.7" height="1.5"/>
								
									<rect x="23.8" y="34.9" transform="matrix(-1 -4.722768e-011 4.722768e-011 -1 49.2355 71.3967)" class="st5" width="1.7" height="1.5"/>
								
									<rect x="33.9" y="38" transform="matrix(-1 -4.078749e-011 4.078749e-011 -1 69.5716 77.4975)" class="st5" width="1.7" height="1.5"/>
								
									<rect x="30.5" y="38" transform="matrix(-1 -4.293422e-011 4.293422e-011 -1 62.7929 77.4975)" class="st5" width="1.7" height="1.5"/>
								
									<rect x="27.2" y="38" transform="matrix(-1 -4.722768e-011 4.722768e-011 -1 56.0142 77.4975)" class="st5" width="1.7" height="1.5"/>
								
									<rect x="23.8" y="38" transform="matrix(-1 -4.508095e-011 4.508095e-011 -1 49.2355 77.4975)" class="st5" width="1.7" height="1.5"/>
								
									<rect x="33.9" y="41" transform="matrix(-1 -4.078749e-011 4.078749e-011 -1 69.5716 83.5983)" class="st5" width="1.7" height="1.5"/>
								
									<rect x="30.5" y="41" transform="matrix(-1 -5.152113e-011 5.152113e-011 -1 62.7929 83.5983)" class="st5" width="1.7" height="1.5"/>
								
									<rect x="27.2" y="41" transform="matrix(-1 -4.508095e-011 4.508095e-011 -1 56.0142 83.5983)" class="st5" width="1.7" height="1.5"/>
								
									<rect x="23.8" y="41" transform="matrix(-1 -4.508095e-011 4.508095e-011 -1 49.2355 83.5983)" class="st5" width="1.7" height="1.5"/>
								
									<rect x="33.9" y="44.1" transform="matrix(-1 -3.649448e-011 3.649448e-011 -1 69.5716 89.6991)" class="st5" width="1.7" height="1.5"/>
								
									<rect x="30.5" y="44.1" transform="matrix(-1 -4.722768e-011 4.722768e-011 -1 62.7929 89.6991)" class="st5" width="1.7" height="1.5"/>
								
									<rect x="27.2" y="44.1" transform="matrix(-1 -4.937440e-011 4.937440e-011 -1 56.0142 89.6991)" class="st5" width="1.7" height="1.5"/>
								
									<rect x="23.8" y="44.1" transform="matrix(-1 -4.508095e-011 4.508095e-011 -1 49.2355 89.6991)" class="st5" width="1.7" height="1.5"/>
								
									<rect x="33.9" y="47.1" transform="matrix(-1 -4.508095e-011 4.508095e-011 -1 69.5716 95.7999)" class="st5" width="1.7" height="1.5"/>
								
									<rect x="30.5" y="47.1" transform="matrix(-1 -4.078749e-011 4.078749e-011 -1 62.7929 95.7999)" class="st5" width="1.7" height="1.5"/>
								
									<rect x="27.2" y="47.1" transform="matrix(-1 -4.078749e-011 4.078749e-011 -1 56.0142 95.7999)" class="st5" width="1.7" height="1.5"/>
								
									<rect x="23.8" y="47.1" transform="matrix(-1 -4.508095e-011 4.508095e-011 -1 49.2355 95.7999)" class="st5" width="1.7" height="1.5"/>
								
									<rect x="33.9" y="50.2" transform="matrix(-1 -4.722768e-011 4.722768e-011 -1 69.5716 101.9008)" class="st5" width="1.7" height="1.5"/>
								
									<rect x="30.5" y="50.2" transform="matrix(-1 -4.722768e-011 4.722768e-011 -1 62.7929 101.9008)" class="st5" width="1.7" height="1.5"/>
								
									<rect x="27.2" y="50.2" transform="matrix(-1 -4.293422e-011 4.293422e-011 -1 56.0142 101.9008)" class="st5" width="1.7" height="1.5"/>
								
									<rect x="23.8" y="50.2" transform="matrix(-1 -4.293422e-011 4.293422e-011 -1 49.2355 101.9008)" class="st5" width="1.7" height="1.5"/>
							</g>
							<g>
								<g>
									
										<rect x="31" y="19.5" transform="matrix(-1 -4.726542e-011 4.726542e-011 -1 63.2299 39.946)" class="st5" width="1.2" height="1"/>
									
										<rect x="28.7" y="19.5" transform="matrix(-1 -3.781254e-011 3.781254e-011 -1 58.6118 39.946)" class="st5" width="1.2" height="1"/>
									
										<rect x="26.4" y="19.5" transform="matrix(-1 -3.781254e-011 3.781254e-011 -1 53.9936 39.946)" class="st5" width="1.2" height="1"/>
									
										<rect x="24.1" y="19.5" transform="matrix(-1 -5.041668e-011 5.041668e-011 -1 49.3755 39.946)" class="st5" width="1.2" height="1"/>
									
										<rect x="31" y="21.5" transform="matrix(-1 -4.411461e-011 4.411461e-011 -1 63.2299 44.1023)" class="st5" width="1.2" height="1"/>
									
										<rect x="28.7" y="21.5" transform="matrix(-1 -3.466128e-011 3.466128e-011 -1 58.6118 44.1023)" class="st5" width="1.2" height="1"/>
									
										<rect x="26.4" y="21.5" transform="matrix(-1 -4.411461e-011 4.411461e-011 -1 53.9936 44.1023)" class="st5" width="1.2" height="1"/>
									
										<rect x="24.1" y="21.5" transform="matrix(-1 -4.726542e-011 4.726542e-011 -1 49.3755 44.1023)" class="st5" width="1.2" height="1"/>
									
										<rect x="31" y="23.6" transform="matrix(-1 -4.726542e-011 4.726542e-011 -1 63.2299 48.2586)" class="st5" width="1.2" height="1"/>
									
										<rect x="28.7" y="23.6" transform="matrix(-1 -4.726542e-011 4.726542e-011 -1 58.6118 48.2586)" class="st5" width="1.2" height="1"/>
									
										<rect x="26.4" y="23.6" transform="matrix(-1 -5.041668e-011 5.041668e-011 -1 53.9936 48.2586)" class="st5" width="1.2" height="1"/>
									
										<rect x="24.1" y="23.6" transform="matrix(-1 -4.411461e-011 4.411461e-011 -1 49.3755 48.2586)" class="st5" width="1.2" height="1"/>
									
										<rect x="31" y="25.7" transform="matrix(-1 -4.096335e-011 4.096335e-011 -1 63.2299 52.415)" class="st5" width="1.2" height="1"/>
									
										<rect x="28.7" y="25.7" transform="matrix(-1 -5.356749e-011 5.356749e-011 -1 58.6118 52.415)" class="st5" width="1.2" height="1"/>
									
										<rect x="26.4" y="25.7" transform="matrix(-1 -4.096335e-011 4.096335e-011 -1 53.9936 52.415)" class="st5" width="1.2" height="1"/>
									
										<rect x="24.1" y="25.7" transform="matrix(-1 -4.411461e-011 4.411461e-011 -1 49.3755 52.415)" class="st5" width="1.2" height="1"/>
									
										<rect x="31" y="27.8" transform="matrix(-1 -3.466128e-011 3.466128e-011 -1 63.2299 56.5713)" class="st5" width="1.2" height="1"/>
									
										<rect x="28.7" y="27.8" transform="matrix(-1 -4.411461e-011 4.411461e-011 -1 58.6118 56.5713)" class="st5" width="1.2" height="1"/>
									
										<rect x="26.4" y="27.8" transform="matrix(-1 -4.411461e-011 4.411461e-011 -1 53.9936 56.5713)" class="st5" width="1.2" height="1"/>
									
										<rect x="24.1" y="27.8" transform="matrix(-1 -4.726542e-011 4.726542e-011 -1 49.3755 56.5713)" class="st5" width="1.2" height="1"/>
									
										<rect x="31" y="29.8" transform="matrix(-1 -4.411461e-011 4.411461e-011 -1 63.2299 60.7276)" class="st5" width="1.2" height="1"/>
									
										<rect x="28.7" y="29.8" transform="matrix(-1 -4.411461e-011 4.411461e-011 -1 58.6118 60.7276)" class="st5" width="1.2" height="1"/>
									
										<rect x="26.4" y="29.8" transform="matrix(-1 -4.411461e-011 4.411461e-011 -1 53.9936 60.7276)" class="st5" width="1.2" height="1"/>
									
										<rect x="24.1" y="29.8" transform="matrix(-1 -5.671875e-011 5.671875e-011 -1 49.3755 60.7276)" class="st5" width="1.2" height="1"/>
								</g>
							</g>
						</g>
						<path class="st5" d="M26.3,8.4h-0.2c0,0,0,0,0,0v-8.6c0,0,0,0,0,0l0.2,0c0,0,0,0,0,0L26.3,8.4C26.3,8.3,26.3,8.4,26.3,8.4z"/>
					</g>
					<g>
						<polygon class="st4" points="41.1,29 50.3,29 44.7,26 35.5,26 						"/>
						<g>
							<polygon class="st6" points="41.1,29 41.1,57.7 35.5,54.7 35.5,26 							"/>
							<g>
								<g>
									<polygon class="st5" points="40.3,31.7 38.5,30.7 38.5,29.6 40.3,30.6 									"/>
									<polygon class="st5" points="40.3,33.8 38.5,32.9 38.5,31.8 40.3,32.8 									"/>
									<polygon class="st5" points="40.3,36 38.5,35.1 38.5,34 40.3,34.9 									"/>
									<polygon class="st5" points="40.3,38.2 38.5,37.2 38.5,36.2 40.3,37.1 									"/>
									<polygon class="st5" points="40.3,40.4 38.5,39.4 38.5,38.3 40.3,39.3 									"/>
									<polygon class="st5" points="40.3,42.6 38.5,41.6 38.5,40.5 40.3,41.5 									"/>
									<polygon class="st5" points="40.3,44.8 38.5,43.8 38.5,42.7 40.3,43.7 									"/>
									<polygon class="st5" points="40.3,47 38.5,46 38.5,44.9 40.3,45.9 									"/>
									<polygon class="st5" points="40.3,49.1 38.5,48.2 38.5,47.1 40.3,48.1 									"/>
									<polygon class="st5" points="40.3,51.3 38.5,50.4 38.5,49.3 40.3,50.2 									"/>
									<polygon class="st5" points="40.3,53.5 38.5,52.5 38.5,51.5 40.3,52.4 									"/>
								</g>
								<g>
									<polygon class="st5" points="38,30.4 36.2,29.5 36.2,28.4 38,29.3 									"/>
									<polygon class="st5" points="38,32.6 36.2,31.6 36.2,30.5 38,31.5 									"/>
									<polygon class="st5" points="38,34.8 36.2,33.8 36.2,32.7 38,33.7 									"/>
									<polygon class="st5" points="38,37 36.2,36 36.2,34.9 38,35.9 									"/>
									<polygon class="st5" points="38,39.2 36.2,38.2 36.2,37.1 38,38.1 									"/>
									<polygon class="st5" points="38,41.4 36.2,40.4 36.2,39.3 38,40.3 									"/>
									<polygon class="st5" points="38,43.5 36.2,42.6 36.2,41.5 38,42.5 									"/>
									<polygon class="st5" points="38,45.7 36.2,44.8 36.2,43.7 38,44.6 									"/>
									<polygon class="st5" points="38,47.9 36.2,46.9 36.2,45.8 38,46.8 									"/>
									<polygon class="st5" points="38,50.1 36.2,49.1 36.2,48 38,49 									"/>
									<polygon class="st5" points="38,52.3 36.2,51.3 36.2,50.2 38,51.2 									"/>
								</g>
							</g>
						</g>
						
							<rect x="41.1" y="29" transform="matrix(-1 -4.556057e-011 4.556057e-011 -1 91.4769 86.7443)" class="st3" width="9.2" height="28.7"/>
						<g>
							<polygon class="st6" points="38,26.5 40.8,28 40.8,24.8 38,23.3 							"/>
							<polygon class="st6" points="39.8,26.5 42.6,28 42.6,22.8 39.8,21.3 							"/>
							<polygon class="st2" points="45.2,21 42.6,22.8 42.6,24.8 41.7,24.2 40.8,24.8 40.8,28 42.6,28 47.8,28 47.8,22.8 							"/>
							<polygon class="st4" points="38.9,22.7 41.7,24.2 40.8,24.8 38,23.3 							"/>
							<polygon class="st4" points="42.4,19.6 45.2,21 42.6,22.8 39.8,21.3 							"/>
							
								<rect x="44.5" y="24.7" transform="matrix(-1 -4.283919e-011 4.283919e-011 -1 90.4561 52.6627)" class="st5" width="1.4" height="3.4"/>
							
								<rect x="41.3" y="26" transform="matrix(-1 -4.125290e-011 4.125290e-011 -1 83.4011 52.9412)" class="st5" width="0.7" height="1"/>
							
								<rect x="42.1" y="26" transform="matrix(-1 -3.609658e-011 3.609658e-011 -1 84.9428 52.9412)" class="st5" width="0.7" height="1"/>
						</g>
					</g>
					<g>
						<polygon class="st4" points="38.8,46.7 36.4,47.5 36.4,56.6 41.2,59.3 41.2,50.1 						"/>
						<polygon class="st5" points="37.8,57.4 39,58.1 39,54.1 37.8,53.4 						"/>
						<polygon class="st2" points="38.8,46.7 41.2,50.1 50.3,50.1 47.9,46.7 						"/>
						<rect x="41.2" y="50.1" class="st6" width="9.1" height="9.1"/>
						<g>
							<rect x="45.9" y="53" class="st5" width="1.8" height="3.5"/>
							<rect x="43.9" y="53" class="st5" width="1.8" height="3.5"/>
						</g>
					</g>
					<g>
						<polygon class="st3" points="31.3,57.9 34.3,59.5 34.3,53.8 31.3,52.2 						"/>
						<polygon class="st5" points="32.1,58.3 32.9,58.7 32.9,55.7 32.1,55.2 						"/>
						<polygon class="st6" points="37.2,51.9 40,53.8 40,59.5 34.3,59.5 34.3,53.8 						"/>
						<polygon class="st7" points="34.1,50.3 37.2,51.9 34.3,53.8 31.3,52.2 						"/>
						
							<rect x="36.4" y="57.3" transform="matrix(-1 -4.171653e-011 4.171653e-011 -1 74.3607 116.7369)" class="st5" width="1.5" height="2.2"/>
					</g>
					<g>
						<g>
							<polygon class="st8" points="16.5,41 16.5,55.2 13.7,53.7 13.7,39.5 							"/>
						</g>
						
							<rect x="9.2" y="39.5" transform="matrix(-1 -4.383395e-011 4.383395e-011 -1 22.9021 93.1777)" class="st2" width="4.6" height="14.3"/>
						<polygon class="st3" points="9.2,39.5 6.4,38 10.9,38 15.5,38 18.3,39.5 21.1,41 23.9,42.5 19.3,42.5 14.8,42.5 12,41 
							16.5,41 13.7,39.5 						"/>
						<polygon class="st2" points="19.3,42.5 23.9,42.5 23.9,56.7 19.3,56.7 14.8,56.7 14.8,42.5 						"/>
						<g>
							<g>
								<polygon class="st6" points="14.8,42.5 14.8,56.7 12,55.2 12,41 								"/>
							</g>
							<g>
								<polygon class="st5" points="14.3,44.1 14.3,44.7 13.3,44.2 12.3,43.6 12.3,43 13.3,43.5 								"/>
								<polygon class="st5" points="14.3,45.3 14.3,46 13.3,45.4 12.3,44.9 12.3,44.2 13.3,44.8 								"/>
								<polygon class="st5" points="14.3,46.6 14.3,47.2 13.3,46.6 12.3,46.1 12.3,45.5 13.3,46 								"/>
								<polygon class="st5" points="14.3,47.8 14.3,48.4 13.3,47.9 12.3,47.3 12.3,46.7 13.3,47.3 								"/>
								<polygon class="st5" points="14.3,49 14.3,49.7 13.3,49.1 12.3,48.6 12.3,47.9 13.3,48.5 								"/>
								<polygon class="st5" points="14.3,50.3 14.3,50.9 13.3,50.4 12.3,49.8 12.3,49.2 13.3,49.7 								"/>
								<polygon class="st5" points="14.3,51.5 14.3,52.1 13.3,51.6 12.3,51 12.3,50.4 13.3,51 								"/>
								<polygon class="st5" points="14.3,52.8 14.3,53.4 13.3,52.8 12.3,52.3 12.3,51.7 13.3,52.2 								"/>
								<polygon class="st5" points="13.3,42.3 14.3,42.9 14.3,43.5 13.3,42.9 12.3,42.4 12.3,41.8 								"/>
								<polygon class="st5" points="14.3,55.2 14.3,55.9 13.3,55.3 12.3,54.7 12.3,54.1 13.3,54.7 								"/>
								<polygon class="st5" points="14.3,54 14.3,54.6 13.3,54.1 12.3,53.5 12.3,52.9 13.3,53.4 								"/>
							</g>
						</g>
						<g>
							<g>
								<polygon class="st6" points="9.2,39.5 9.2,53.7 6.4,52.2 6.4,38 								"/>
							</g>
							<g>
								<polygon class="st5" points="8.7,41.1 8.7,41.7 7.7,41.2 6.7,40.6 6.7,40 7.7,40.5 								"/>
								<polygon class="st5" points="8.7,42.3 8.7,43 7.7,42.4 6.7,41.8 6.7,41.2 7.7,41.8 								"/>
								<polygon class="st5" points="8.7,43.6 8.7,44.2 7.7,43.6 6.7,43.1 6.7,42.5 7.7,43 								"/>
								<polygon class="st5" points="8.7,44.8 8.7,45.4 7.7,44.9 6.7,44.3 6.7,43.7 7.7,44.3 								"/>
								<polygon class="st5" points="8.7,46 8.7,46.7 7.7,46.1 6.7,45.6 6.7,44.9 7.7,45.5 								"/>
								<polygon class="st5" points="8.7,47.3 8.7,47.9 7.7,47.3 6.7,46.8 6.7,46.2 7.7,46.7 								"/>
								<polygon class="st5" points="8.7,48.5 8.7,49.1 7.7,48.6 6.7,48 6.7,47.4 7.7,48 								"/>
								<polygon class="st5" points="8.7,49.8 8.7,50.4 7.7,49.8 6.7,49.3 6.7,48.7 7.7,49.2 								"/>
								<polygon class="st5" points="7.7,39.3 8.7,39.9 8.7,40.5 7.7,39.9 6.7,39.4 6.7,38.8 								"/>
								<polygon class="st5" points="8.7,52.2 8.7,52.8 7.7,52.3 6.7,51.7 6.7,51.1 7.7,51.7 								"/>
								<polygon class="st5" points="8.7,51 8.7,51.6 7.7,51.1 6.7,50.5 6.7,49.9 7.7,50.4 								"/>
							</g>
						</g>
					</g>
					<g>
						<polygon class="st6" points="28.2,51.8 31.9,51.8 28.6,50.1 28.2,50.1 						"/>
						<polygon class="st4" points="28.2,48.5 28.2,51.8 31.9,51.8 31.9,59.5 28.2,59.5 20,59.5 20,48.5 						"/>
						<polygon class="st3" points="16.8,57.8 20,59.5 20,48.5 16.8,46.7 						"/>
						<polygon class="st6" points="20,48.5 28.2,48.5 25,46.7 16.8,46.7 						"/>
					</g>
				</g>
			</g>
		</g>
	</g>
</g>
</svg>
