<?xml version="1.0" encoding="utf-8"?>
<!-- Generator: Adobe Illustrator 19.2.1, SVG Export Plug-In . SVG Version: 6.00 Build 0)  -->
<svg version="1.1" id="Camada_1" xmlns="http://www.w3.org/2000/svg" xmlns:xlink="http://www.w3.org/1999/xlink" x="0px" y="0px"
	 viewBox="0 0 56.7 56.7" style="enable-background:new 0 0 56.7 56.7;" xml:space="preserve">
<style type="text/css">
	.st0{fill:#FFFFFF;}
	.st1{fill:#00CC8D;}
	.st2{fill:#444242;}
	.st3{fill:#87868A;}
	.st4{fill:#D34600;}
</style>
<g>
	<circle class="st0" cx="28.3" cy="28.3" r="28.3"/>
	<g>
		<path class="st1" d="M39.7,27.8L39.7,27.8l0.1-14.2h1.4v-1.9h-1.4c-1.1,0-1.9,0.9-1.9,1.9v0v14.2h-4.4v-9.1c0-1.9-1.5-3.4-3.4-3.4
			H19c-1.9,0-3.4,1.5-3.4,3.4V40h17.9h9.6v-8.7C43.1,29.4,41.6,27.8,39.7,27.8z"/>
		<g>
			<path class="st2" d="M29.3,35.7c0-0.2-0.2-0.4-0.4-0.4l-0.7,0c0,0,0,0,0-0.1c0-0.3-0.1-0.5-0.1-0.8l0.6-0.3
				c0.2-0.1,0.3-0.3,0.2-0.5l-0.5-1.2c-0.1-0.2-0.3-0.3-0.5-0.2l-0.6,0.3c-0.1-0.1-0.2-0.3-0.3-0.4c-0.1-0.1-0.2-0.3-0.3-0.4
				l0.5-0.5c0.2-0.2,0.2-0.4,0-0.6l-0.9-0.9c-0.2-0.2-0.4-0.2-0.6,0l-0.5,0.5c-0.1-0.1-0.2-0.1-0.3-0.2c-0.1-0.1-0.3-0.2-0.4-0.3
				l0.3-0.6c0.1-0.2,0-0.4-0.2-0.5l-1.1-0.5c-0.2-0.1-0.4,0-0.5,0.2L22.7,29c0,0,0,0,0,0c0,0,0,0-0.1,0c-0.3-0.1-0.6-0.1-0.9-0.2
				v-0.7c0-0.2-0.2-0.4-0.4-0.4h-1.2c-0.2,0-0.4,0.2-0.4,0.4v0.7c0,0,0,0-0.1,0c-0.3,0-0.5,0.1-0.8,0.1l-0.3-0.6
				c-0.1-0.2-0.3-0.3-0.5-0.2l-1.2,0.5c-0.2,0.1-0.3,0.3-0.2,0.5l0.3,0.6c-0.1,0.1-0.3,0.2-0.4,0.3c-0.1,0.1-0.3,0.2-0.4,0.3
				l-0.5-0.5c-0.2-0.2-0.4-0.2-0.6,0l-0.9,0.9c-0.2,0.2-0.2,0.4,0,0.6l0.5,0.5c-0.1,0.1-0.1,0.2-0.2,0.3c-0.1,0.1-0.2,0.3-0.3,0.4
				l-0.6-0.3c-0.2-0.1-0.4,0-0.5,0.2l-0.5,1.1c-0.1,0.2,0,0.4,0.2,0.5l0.6,0.3c0,0,0,0,0,0c0,0,0,0,0,0.1c-0.1,0.3-0.1,0.6-0.2,0.9
				l-0.7,0c-0.2,0-0.4,0.2-0.4,0.4v1.2c0,0.2,0.2,0.4,0.4,0.4h0.7c0,0,0,0,0,0.1c0,0.3,0.1,0.5,0.1,0.8l-0.6,0.3
				c-0.2,0.1-0.3,0.3-0.2,0.5l0.5,1.2c0.1,0.2,0.3,0.3,0.5,0.2l0.6-0.3c0.1,0.1,0.2,0.3,0.3,0.4c0.1,0.1,0.2,0.3,0.3,0.4l-0.5,0.5
				c-0.2,0.2-0.2,0.4,0,0.6l0.9,0.9c0.2,0.2,0.4,0.2,0.6,0l0.5-0.5c0.1,0.1,0.2,0.1,0.3,0.2c0.1,0.1,0.3,0.2,0.4,0.3l-0.3,0.6
				c-0.1,0.2,0,0.4,0.2,0.5l1.1,0.5c0.2,0.1,0.4,0,0.5-0.2l0.3-0.6c0,0,0,0,0,0c0,0,0,0,0.1,0c0.3,0.1,0.6,0.1,0.9,0.2v0.7
				c0,0.2,0.2,0.4,0.4,0.4h1.2c0.2,0,0.4-0.2,0.4-0.4v-0.7c0,0,0,0,0.1,0c0.3,0,0.5-0.1,0.8-0.1l0.3,0.6c0.1,0.2,0.3,0.3,0.5,0.2
				l1.2-0.5c0.2-0.1,0.3-0.3,0.2-0.5l-0.3-0.6c0.1-0.1,0.3-0.2,0.4-0.3c0.1-0.1,0.3-0.2,0.4-0.3l0.5,0.5c0.2,0.2,0.4,0.2,0.6,0
				l0.9-0.9c0.2-0.2,0.2-0.4,0-0.6l-0.5-0.5c0.1-0.1,0.1-0.2,0.2-0.3c0.1-0.1,0.2-0.3,0.3-0.4l0.6,0.3c0.2,0.1,0.4,0,0.5-0.2
				l0.5-1.1c0.1-0.2,0-0.4-0.2-0.5L28,38.3c0,0,0,0,0,0c0,0,0,0,0-0.1c0.1-0.3,0.1-0.6,0.2-0.9h0.7c0.2,0,0.4-0.2,0.4-0.4V35.7z"/>
			
				<ellipse transform="matrix(0.7071 -0.7071 0.7071 0.7071 -19.5876 25.2817)" class="st0" cx="20.7" cy="36.3" rx="2.1" ry="2.1"/>
		</g>
		<g>
			<path class="st2" d="M31.4,40c0-2.7,2.2-4.9,4.9-4.9c2.7,0,4.9,2.2,4.9,4.9c0,2.7-2.2,4.9-4.9,4.9C33.6,44.9,31.4,42.7,31.4,40z"
				/>
			<path class="st0" d="M34.5,40c0-1,0.8-1.8,1.8-1.8c1,0,1.8,0.8,1.8,1.8c0,1-0.8,1.9-1.8,1.8C35.3,41.8,34.5,41,34.5,40z"/>
		</g>
		<path class="st3" d="M30.9,27.8h2.6v-9.1h-7.9c-1,0-1.9,0.8-1.9,1.9v0.1C23.7,24.6,26.9,27.8,30.9,27.8z"/>
		<path class="st3" d="M15.6,27.8L15.6,27.8l0-9.1h4.6c1,0,1.9,0.8,1.9,1.9v0.8C22.1,24.9,19.2,27.8,15.6,27.8z"/>
		<path class="st4" d="M44.6,32.7c0,0.8-0.7,1.5-1.5,1.5v-2.9C43.9,31.3,44.6,31.9,44.6,32.7z"/>
		<rect x="37.7" y="17.6" class="st1" width="2.3" height="4.7"/>
	</g>
</g>
</svg>
