<?xml version="1.0" encoding="utf-8"?>
<!-- Generator: Adobe Illustrator 19.2.1, SVG Export Plug-In . SVG Version: 6.00 Build 0)  -->
<svg version="1.1" id="Camada_1" xmlns="http://www.w3.org/2000/svg" xmlns:xlink="http://www.w3.org/1999/xlink" x="0px" y="0px"
	 viewBox="0 0 56.7 56.7" style="enable-background:new 0 0 56.7 56.7;" xml:space="preserve">
<style type="text/css">
	.st0{fill:#FFFFFF;}
	.st1{fill:#4600CC;}
	.st2{fill:#727176;}
</style>
<g>
	<circle class="st0" cx="28.3" cy="28.3" r="28.3"/>
	<g>
		<rect x="8.5" y="32.7" class="st1" width="7.8" height="6.5"/>
		<rect x="20.5" y="20.6" class="st1" width="15.6" height="7.8"/>
		<rect x="19.4" y="20.2" class="st2" width="1.2" height="8.7"/>
		<rect x="36.1" y="20.2" class="st2" width="1.2" height="8.7"/>
		<rect x="8.1" y="31.5" class="st2" width="8.7" height="1.2"/>
		<rect x="8.1" y="39.1" class="st2" width="8.7" height="1.2"/>
		<rect x="39.9" y="16.4" class="st2" width="8.7" height="1.2"/>
		<path class="st1" d="M19.4,20.6v7.8c-1.7,0-3.1,1.4-3.1,3.1H8.5C8.5,25.5,13.4,20.6,19.4,20.6z"/>
		<path class="st1" d="M37.3,28.4v-7.8c1.7,0,3.1-1.4,3.1-3.1h7.8C48.2,23.6,43.3,28.4,37.3,28.4z"/>
	</g>
</g>
</svg>
