<?xml version="1.0" encoding="utf-8"?>
<!-- Generator: Adobe Illustrator 19.2.1, SVG Export Plug-In . SVG Version: 6.00 Build 0)  -->
<svg version="1.1" id="Camada_1" xmlns="http://www.w3.org/2000/svg" xmlns:xlink="http://www.w3.org/1999/xlink" x="0px" y="0px"
	 viewBox="0 0 56.7 56.7" style="enable-background:new 0 0 56.7 56.7;" xml:space="preserve">
<style type="text/css">
	.st0{fill:#FFFFFF;}
	.st1{fill:#D34600;}
</style>
<g>
	<circle class="st0" cx="28.3" cy="28.3" r="28.3"/>
	<path class="st1" d="M35.3,20.1c-2.8,0-5.3-1.6-6.5-4c0,0,0,0,0,0c-0.2-0.5-0.9-0.5-1.1,0c0,0,0,0,0,0c-1.2,2.4-3.6,4-6.5,4
		c-0.8,0-1.5-0.1-2.2-0.3c-0.4-0.1-0.8,0.2-0.8,0.6c0,1.4,0,2.7,0,4.1v2.9c0,1,0,2,0.1,2.9c0.3,2.1,1.2,3.9,2.6,5.5
		c1.7,1.9,3.7,3.4,6,4.6c0.4,0.2,0.8,0.5,1.2,0.5c0.4,0,0.8-0.3,1.2-0.5c2.3-1.2,4.3-2.7,6-4.6c1.4-1.6,2.3-3.4,2.6-5.5
		c0.1-1,0.1-1.9,0.1-2.9v-2.9c0-1.4,0-2.7,0-4.1c0-0.4-0.4-0.7-0.8-0.6C36.8,20,36.1,20.1,35.3,20.1z"/>
</g>
</svg>
