<?xml version="1.0" encoding="utf-8"?>
<!-- Generator: Adobe Illustrator 19.2.1, SVG Export Plug-In . SVG Version: 6.00 Build 0)  -->
<svg version="1.1" id="Camada_1" xmlns="http://www.w3.org/2000/svg" xmlns:xlink="http://www.w3.org/1999/xlink" x="0px" y="0px"
	 viewBox="0 0 56.7 56.7" style="enable-background:new 0 0 56.7 56.7;" xml:space="preserve">
<style type="text/css">
	.st0{fill:#FFFFFF;}
	.st1{fill:#D34600;}
	.st2{fill:#BA2C00;}
	.st3{fill:#9A00CC;}
	.st4{fill:#00CC88;}
</style>
<g>
	<circle class="st0" cx="28.3" cy="28.3" r="28.3"/>
	<g>
		<path class="st1" d="M35.6,19.5v2.6H34v-2.6c0-0.9-0.7-1.6-1.6-1.6h-8.1c-0.9,0-1.6,0.7-1.6,1.6v2.6h-1.6v-2.6
			c0-1.8,1.4-3.2,3.2-3.2h8.1C34.2,16.3,35.6,17.7,35.6,19.5z"/>
		<path class="st2" d="M46.5,31v9.4H10.2V31c0,1.7,1.4,3.1,3.1,3.1h4v-0.9c0-0.6,0.5-1,1-1h0c0.6,0,1,0.5,1,1v0.9h17.8v-0.9
			c0-0.6,0.5-1,1-1h0c0.6,0,1,0.5,1,1v0.9h4C45.1,34.1,46.5,32.7,46.5,31z"/>
		<path class="st1" d="M46.5,22.1V31c0,1.7-1.4,3.1-3.1,3.1h-30c-1.7,0-3.1-1.4-3.1-3.1v-8.9H46.5z"/>
		<path class="st3" d="M19.4,33.2v0.9h-2.1v-0.9c0-0.6,0.5-1,1-1h0C19,32.2,19.4,32.6,19.4,33.2z"/>
		<path class="st3" d="M39.3,33.2v0.9h-2.1v-0.9c0-0.6,0.5-1,1-1h0C38.9,32.2,39.3,32.6,39.3,33.2z"/>
		<g>
			<path class="st4" d="M19.4,33.2V35c0,0.6-0.5,1-1,1h0c-0.6,0-1-0.5-1-1v-1.7c0-0.6,0.5-1,1-1h0C19,32.2,19.4,32.6,19.4,33.2z"/>
			<path class="st4" d="M39.3,33.2V35c0,0.6-0.5,1-1,1h0c-0.6,0-1-0.5-1-1v-1.7c0-0.6,0.5-1,1-1h0C38.9,32.2,39.3,32.6,39.3,33.2z"
				/>
		</g>
	</g>
</g>
</svg>
