<?xml version="1.0" encoding="utf-8"?>
<!-- Generator: Adobe Illustrator 19.2.1, SVG Export Plug-In . SVG Version: 6.00 Build 0)  -->
<svg version="1.1" id="Camada_1" xmlns="http://www.w3.org/2000/svg" xmlns:xlink="http://www.w3.org/1999/xlink" x="0px" y="0px"
	 viewBox="0 0 56.7 56.7" style="enable-background:new 0 0 56.7 56.7;" xml:space="preserve">
<style type="text/css">
	.st0{fill:#FFFFFF;}
	.st1{fill:#DB9600;}
	.st2{fill:#444242;}
	.st3{fill:#87868A;}
	.st4{fill:#D34600;}
</style>
<g>
	<circle class="st0" cx="28.3" cy="28.3" r="28.3"/>
	<g>
		<path class="st1" d="M45.2,25.6v9.4H10.4v-9.4c0-1.7,0.6-3.3,1.6-4.6c1.4-1.7,3.4-2.8,5.8-2.8h20c2.4,0,4.5,1.1,5.8,2.8
			C44.6,22.2,45.2,23.8,45.2,25.6z"/>
		<circle class="st2" cx="37.6" cy="34.9" r="3.7"/>
		<circle class="st2" cx="18" cy="34.9" r="3.7"/>
		<circle class="st0" cx="18" cy="34.9" r="1.9"/>
		<circle class="st0" cx="37.6" cy="34.9" r="1.9"/>
		<path class="st3" d="M17,27h3.2c0.8,0,1.4-0.6,1.4-1.4v-3.2c0-0.8-0.6-1.4-1.4-1.4H17c-0.8,0-1.4,0.6-1.4,1.4v3.2
			C15.6,26.3,16.3,27,17,27z"/>
		<path class="st3" d="M15.1,21.7v4.5c0,0.4-0.3,0.7-0.7,0.7h-4v-1.4c0-1.7,0.6-3.3,1.6-4.6h2.4C14.8,20.9,15.1,21.3,15.1,21.7z"/>
		<path class="st3" d="M23.6,27h3.2c0.8,0,1.4-0.6,1.4-1.4v-3.2c0-0.8-0.6-1.4-1.4-1.4h-3.2c-0.8,0-1.4,0.6-1.4,1.4v3.2
			C22.2,26.3,22.8,27,23.6,27z"/>
		<path class="st3" d="M30.1,27h3.2c0.8,0,1.4-0.6,1.4-1.4v-3.2c0-0.8-0.6-1.4-1.4-1.4h-3.2c-0.8,0-1.4,0.6-1.4,1.4v3.2
			C28.7,26.3,29.3,27,30.1,27z"/>
		<path class="st3" d="M45.2,25.6V27H41c-1.5,0-2.8-0.6-3.7-1.5c-1-1-1.5-2.3-1.5-3.7c0-0.4,0.3-0.7,0.7-0.7h7.1
			C44.6,22.2,45.2,23.8,45.2,25.6z"/>
		<path class="st4" d="M46.3,30.8c0,0.6-0.5,1.1-1.1,1.1v-2.2C45.8,29.7,46.3,30.2,46.3,30.8z"/>
	</g>
</g>
</svg>
