<?xml version="1.0" encoding="utf-8"?>
<!-- Generator: Adobe Illustrator 19.2.1, SVG Export Plug-In . SVG Version: 6.00 Build 0)  -->
<svg version="1.1" id="Camada_1" xmlns="http://www.w3.org/2000/svg" xmlns:xlink="http://www.w3.org/1999/xlink" x="0px" y="0px"
	 viewBox="0 0 56.7 56.7" style="enable-background:new 0 0 56.7 56.7;" xml:space="preserve">
<style type="text/css">
	.st0{fill:#FFFFFF;}
	.st1{fill:#4600CC;}
</style>
<g>
	<circle class="st0" cx="28.3" cy="28.3" r="28.3"/>
	<g>
		<g>
			<path class="st1" d="M37.8,39.4H12.9c-0.3,0-0.5-0.2-0.5-0.5v-0.3c0-0.3,0.2-0.5,0.5-0.5h24.9c0.3,0,0.5,0.2,0.5,0.5V39
				C38.3,39.2,38.1,39.4,37.8,39.4z"/>
			<path class="st1" d="M36.6,36.8H14.1c-0.3,0-0.5-0.2-0.5-0.5V36c0-0.3,0.2-0.5,0.5-0.5h22.5c0.3,0,0.5,0.2,0.5,0.5v0.3
				C37.1,36.6,36.9,36.8,36.6,36.8z"/>
			<path class="st1" d="M36.6,34.3H14.1c-0.3,0-0.5-0.2-0.5-0.5v-0.3c0-0.3,0.2-0.5,0.5-0.5h22.5c0.3,0,0.5,0.2,0.5,0.5v0.3
				C37.1,34.1,36.9,34.3,36.6,34.3z"/>
		</g>
		<g>
			<path class="st1" d="M16.2,41.9v-8.4c0-0.3,0.2-0.5,0.5-0.5H17c0.3,0,0.5,0.2,0.5,0.5v8.4c0,0.3-0.2,0.5-0.5,0.5h-0.3
				C16.4,42.4,16.2,42.1,16.2,41.9z"/>
			<path class="st1" d="M33.2,41.9v-8.4c0-0.3,0.2-0.5,0.5-0.5H34c0.3,0,0.5,0.2,0.5,0.5v8.4c0,0.3-0.2,0.5-0.5,0.5h-0.3
				C33.4,42.4,33.2,42.1,33.2,41.9z"/>
		</g>
		<path class="st1" d="M43.8,14.8l-2.1-0.4c-0.1,0-0.1,0-0.2,0l-2.1,0.4c-0.3,0.1-0.5,0.3-0.4,0.6l0.6,3.8c0,0.3,0.3,0.4,0.5,0.4H41
			v20.5h-0.1c-0.3,0-0.6,0.3-0.6,0.6c0,0.3,0.3,0.6,0.6,0.6H41l0,0h-0.4c-0.3,0-0.6,0.3-0.6,0.6c0,0.3,0.3,0.6,0.6,0.6H41l0,0h1.3
			l0,0h0.4c0.3,0,0.6-0.3,0.6-0.6c0-0.3-0.3-0.6-0.6-0.6h-0.4l0,0h0.1c0.3,0,0.6-0.3,0.6-0.6c0-0.3-0.3-0.6-0.6-0.6h-0.1V19.6h0.9
			c0.3,0,0.5-0.2,0.5-0.4l0.6-3.8C44.3,15.1,44.1,14.8,43.8,14.8z"/>
	</g>
</g>
</svg>
