<svg id="Camada_1" data-name="Camada 1" xmlns="http://www.w3.org/2000/svg" viewBox="0 0 546.06 435.93"><defs><style>.cls-1{fill:#c64832;}.cls-2{fill:#58a87d;}.cls-3{fill:#db9600;}.cls-4{fill:#5850c0;}.cls-5{fill:#7d427d;}</style></defs><title>as_diferentonas</title><path class="cls-1" d="M325.39,282.55H297V231.62h28.39a20,20,0,0,1,11.2,3.41,24.54,24.54,0,0,1,8.29,9.29A27.76,27.76,0,0,1,346.14,267a26.47,26.47,0,0,1-4.88,8.13,23,23,0,0,1-7.21,5.43A19.69,19.69,0,0,1,325.39,282.55Zm-26.17-2.22h26.17a17.44,17.44,0,0,0,7.78-1.84,20.78,20.78,0,0,0,6.49-5,24.06,24.06,0,0,0,4.38-7.43,25.54,25.54,0,0,0,0-18,24.28,24.28,0,0,0-4.38-7.42,20.67,20.67,0,0,0-6.49-5,17.38,17.38,0,0,0-7.78-1.85H299.22v46.5Zm2.22-2.21V236h24a15.62,15.62,0,0,1,9,2.81,19.93,19.93,0,0,1,6.61,7.67,23.87,23.87,0,0,1,0,21.1,19.91,19.91,0,0,1-6.61,7.68,15.66,15.66,0,0,1-9,2.81h-24Zm2.21-2.22h21.74a13.41,13.41,0,0,0,7.83-2.52,17.86,17.86,0,0,0,5.76-6.86,21.74,21.74,0,0,0,0-18.87,17.7,17.7,0,0,0-5.78-6.87,13.43,13.43,0,0,0-7.81-2.53H303.65V275.9Zm2.22-2.21V240.48h19.53a11.29,11.29,0,0,1,6.7,2.22,15.38,15.38,0,0,1,4.94,6,20,20,0,0,1,0,16.69,15.36,15.36,0,0,1-4.94,6.06,11.33,11.33,0,0,1-6.7,2.22H305.86Zm2.21-2.22h17.32q4.58,0,7.89-4.23a16,16,0,0,0,3.31-10.16,17.15,17.15,0,0,0-1.52-7.23,13.33,13.33,0,0,0-4.09-5.25,9.14,9.14,0,0,0-5.58-1.92H308.08v28.78Zm2.22-2.21V244.9h15.1q3.66,0,6.29,3.58a15.4,15.4,0,0,1,0,17.21q-2.64,3.57-6.29,3.57h-15.1Zm2.22-2.22h12.88q2.74,0,4.69-2.92a13.69,13.69,0,0,0,0-14.1q-2-2.91-4.69-2.91H312.51V267Z"/><path class="cls-1" d="M352.82,231.62H355v50.93h-2.22V231.62Zm4.43,0h2.21v50.93h-2.21V231.62Zm4.43,0h2.21v50.93h-2.21V231.62Zm4.43,0h2.22v50.93h-2.22V231.62Z"/><path class="cls-1" d="M376.38,282.55h-2.22V231.62h2.22v50.93Zm4.43,0H378.6V231.62h2.21v50.93Zm4.43,0H383V231.62h2.21v50.93Zm4.43,0h-2.22V231.62H412v2.21H389.67V236H412v2.21H389.67v2.22H412v2.22H389.67v11.07h21.25V256H389.67v2.22h21.25v2.21H389.67v2.22h21.25v2.21H389.67v17.72Z"/><path class="cls-1" d="M419.41,282.55h-2.22V231.62h2.22v50.93Zm4.43,0h-2.21V231.62h2.21v50.93Zm4.43,0h-2.21V231.62h2.21v50.93Zm4.43-11.07h23.55v2.22H432.7v2.21h23.55v2.22H432.7v2.21h23.55v2.22H430.48V231.62h25.77v2.21H432.7V236h23.55v2.21H432.7v2.22h23.55v2.22H432.7v8.86h12.08v2.21H432.7V256h12.08v2.22H432.7v2.21h12.08v2.22H432.7v8.86Z"/><path class="cls-1" d="M313.74,341.65h13.35a16,16,0,0,0,13.9-8,16.3,16.3,0,0,0,2.22-8.38,14.82,14.82,0,0,0-2.2-7.8,16.63,16.63,0,0,0-5.92-5.83,15.58,15.58,0,0,0-8-2.18H299.23v48.72H297V307.2h30.08a17.7,17.7,0,0,1,9.07,2.47,18.81,18.81,0,0,1,6.75,6.64,17,17,0,0,1,2.51,8.9,19.17,19.17,0,0,1-2.36,9.62,17.12,17.12,0,0,1-6.38,6.49l5.72,16.79h-2.33l-5.47-15.75c-0.82.33-1.45,0.56-1.87,0.68l5.13,15.07h-2.33l-5-14.55c-0.19,0-.84.12-2,0.22l4.77,14.33H331l-4.71-14.27h-2l4.49,14.27h-2.34l-4.52-14.27h-8.15v-2.21Zm0-4.43h13.35a11.38,11.38,0,0,0,8.24-3.37,11.54,11.54,0,0,0,3.45-8.63,10.8,10.8,0,0,0-3.52-8,11.36,11.36,0,0,0-8.17-3.43H303.65v44.29h-2.21v-46.5h25.65a13.42,13.42,0,0,1,6.87,1.87,14.3,14.3,0,0,1,5.12,5,12.71,12.71,0,0,1,1.91,6.69,13.7,13.7,0,0,1-4.1,10.13,13.42,13.42,0,0,1-9.8,4.08H313.74v-2.21Zm0-4.43h13.35a7,7,0,0,0,7.26-7.56,6.54,6.54,0,0,0-2.22-4.81,7.06,7.06,0,0,0-5-2.14h-19v39.86h-2.21V316.06h21.22a9.21,9.21,0,0,1,6.61,2.78,8.67,8.67,0,0,1,2.86,6.38,9.41,9.41,0,0,1-2.77,7.1,9.29,9.29,0,0,1-6.7,2.68H313.74v-2.22Zm-1.23,25.34H310.3V320.49h16.79a5,5,0,0,1,3.55,1.4,4.43,4.43,0,0,1,1.49,3.34q0,5.35-5,5.35H313.74v-2.22h13.35a3,3,0,0,0,2.08-.69,3.24,3.24,0,0,0,.75-2.45,2.31,2.31,0,0,0-.82-1.8,2.93,2.93,0,0,0-2-.72H312.51v35.43Z"/><path class="cls-1" d="M352.37,358.13h-2.22V307.2h2.22v50.93Zm4.43,0h-2.21V307.2h2.21v50.93Zm4.43,0H359V307.2h2.21v50.93Zm4.43-11.07h23.55v2.22H365.66v2.21h23.55v2.22H365.66v2.21h23.55v2.22H363.44V307.2h25.77v2.21H365.66v2.22h23.55v2.21H365.66v2.22h23.55v2.22H365.66v8.86h12.08v2.21H365.66v2.22h12.08v2.22H365.66V336h12.08v2.22H365.66v8.86Z"/><path class="cls-1" d="M396.87,310.8v47.33h-2.22V307.2h2.65l31.21,50.93H426Zm2.22,6.31,2.21,3.75v37.28h-2.21v-41Zm0.77-9.9h2.58l31.31,50.93h-2.59Zm3.66,17.25,2.21,3.72v30h-2.21V324.46Zm1.56-17.25h2.62L439,358.13h-2.64Zm2.86,24.51,2.22,3.66v22.76h-2.22V331.71Zm2.34-24.51h2.58l29,47.33V307.2h2.21v50.93H441.5Zm20.54,26.42L428.61,330V307.2h2.22v26.42Zm4.43,7.26L433,337.16v-30h2.21v33.68Zm4.43,7.35-2.21-3.75V307.2h2.21v41Z"/><path class="cls-1" d="M296,385v-2.21h33.22V385H296Zm0,4.43v-2.21h33.22v2.21H296Zm0,4.43v-2.22h33.22v2.22h-8.86v39.86h-2.22V393.86H316v39.86h-2.21V393.86h-2.22v39.86h-2.21V393.86H307.1v39.86h-2.21V393.86H296Z"/><path class="cls-1" d="M335.32,419a27.35,27.35,0,0,1,0-21.5A27.29,27.29,0,0,1,350,382.77a27.35,27.35,0,0,1,21.5,0,27.25,27.25,0,0,1,14.73,14.73,27.35,27.35,0,0,1,0,21.5,27.29,27.29,0,0,1-14.73,14.73,27.35,27.35,0,0,1-21.5,0A27.34,27.34,0,0,1,335.32,419Zm2-20.64a25.29,25.29,0,0,0,0,19.78,25,25,0,0,0,13.56,13.56,25.29,25.29,0,0,0,19.78,0,25,25,0,0,0,13.56-13.56,25.29,25.29,0,0,0,0-19.78,25,25,0,0,0-13.56-13.56,25.29,25.29,0,0,0-19.78,0A25,25,0,0,0,337.35,398.36Zm3.32,21.55a23.34,23.34,0,0,1,0-23.31,23.14,23.14,0,0,1,8.47-8.47,23.31,23.31,0,0,1,23.31,0,23.1,23.1,0,0,1,8.47,8.47,23.31,23.31,0,0,1,0,23.31,23.14,23.14,0,0,1-8.47,8.47,23.34,23.34,0,0,1-23.31,0A23.18,23.18,0,0,1,340.67,419.91Zm0.75-19.84a21,21,0,0,0,0,16.36,20.55,20.55,0,0,0,11.2,11.2,21,21,0,0,0,16.36,0,20.55,20.55,0,0,0,11.2-11.2,21,21,0,0,0,0-16.36A21,21,0,0,0,341.42,400.07Zm3.08,17.62a18.78,18.78,0,1,1,6.86,6.86A18.69,18.69,0,0,1,344.5,417.69Zm1.92-17.78a16.67,16.67,0,0,0,0,16.67,16.55,16.55,0,0,0,6,6,16.67,16.67,0,0,0,16.67,0,16.6,16.6,0,0,0,6-6,16.71,16.71,0,0,0,0-16.67,16.66,16.66,0,0,0-6-6,16.71,16.71,0,0,0-16.67,0A16.6,16.6,0,0,0,346.42,399.92Zm1.12,13.91a14.26,14.26,0,0,1,0-11.16,14.19,14.19,0,0,1,7.68-7.67,14.26,14.26,0,0,1,11.16,0,14.16,14.16,0,0,1,7.67,7.67,14.26,14.26,0,0,1,0,11.16,14.19,14.19,0,0,1-7.67,7.68,14.26,14.26,0,0,1-11.16,0A14.22,14.22,0,0,1,347.54,413.83Zm4.64-14.19a12.18,12.18,0,1,0,8.62-3.57A11.74,11.74,0,0,0,352.18,399.64Z"/><path class="cls-1" d="M395.27,386.38v47.33h-2.22V382.79h2.65l31.21,50.93h-2.55Zm2.22,6.31,2.21,3.75v37.28h-2.21v-41Zm0.77-9.9h2.58l31.31,50.93h-2.59ZM401.92,400l2.21,3.72v30h-2.21V400Zm1.56-17.25h2.62l31.28,50.93h-2.64Zm2.86,24.51,2.22,3.66v22.76h-2.22V407.3Zm2.34-24.51h2.58l29,47.33V382.79h2.21v50.93H439.9Zm20.54,26.42L427,405.55V382.79h2.22v26.42Zm4.43,7.26-2.21-3.72v-30h2.21v33.68Zm4.43,7.35-2.21-3.75V382.79h2.21v41Z"/><path class="cls-1" d="M448.91,433.72h-2.4l20.15-50.93h2.4l20.11,50.93H486.8l-18.95-47.95ZM468.13,391l1.26,2.83-15.75,39.86h-2.37Zm2.46,5.84,1.16,3-13.32,33.8H456Zm2.33,6.09,1.17,3.11-10.92,27.65h-2.37Zm-6,24.67,0.86-2.22h14.52l0.92,2.22H466.9Zm1.72-4.43,0.86-2.22h11l1,2.22H468.62Zm1.72-4.43,0.89-2.22h7.57l0.89,2.22h-9.35Zm3.45-36,20.15,50.93h-2.4l-20.12-50.93h2.37Zm4.77,0,20.14,50.93h-2.37l-20.14-50.93h2.37Zm24.91,50.93h-2.4L481,382.79h2.37Z"/><path class="cls-1" d="M527.92,402.72H524.2a4.27,4.27,0,0,1-3.41-1.22,4.73,4.73,0,0,1-1-3.21q0-4.43,6.61-4.43,6.21,0,9.35,1.84l-1.78,1.35q-2.15-1-7.56-1a7.27,7.27,0,0,0-3.55.59,1.84,1.84,0,0,0-.91,1.63,2.47,2.47,0,0,0,.49,1.63,2.3,2.3,0,0,0,1.82.58H528a19.08,19.08,0,0,1,7.49,1.42,15,15,0,0,1,5.49,3.86,17.2,17.2,0,0,1,3.29,5.63,20.07,20.07,0,0,1,1.14,6.81,18.53,18.53,0,0,1-.83,5.6,15.86,15.86,0,0,1-2.51,4.86,17.29,17.29,0,0,1-4,3.83,18.92,18.92,0,0,1-5.6,2.52,26.08,26.08,0,0,1-7,.91,33.71,33.71,0,0,1-11.12-1.8,23.84,23.84,0,0,1-8.63-5l1.78-1.32a21.62,21.62,0,0,0,7.86,4.38,32.08,32.08,0,0,0,10.1,1.55A22.57,22.57,0,0,0,533,432.5a15.39,15.39,0,0,0,5.6-3.34,14.77,14.77,0,0,0,3.39-4.92,15.41,15.41,0,0,0,1.18-6,17.11,17.11,0,0,0-1.72-7.73,13.63,13.63,0,0,0-5.25-5.61A15.61,15.61,0,0,0,527.92,402.72Zm-3.72,11.07h3.38A4.25,4.25,0,0,1,531,415a4.76,4.76,0,0,1,1,3.2q0,4.43-6.61,4.43-6.24,0-9.38-1.84l1.78-1.36q2.16,1,7.6,1a7.27,7.27,0,0,0,3.55-.59,1.84,1.84,0,0,0,.91-1.63,2.42,2.42,0,0,0-.51-1.61,2.34,2.34,0,0,0-1.86-.6H524.2a20.32,20.32,0,0,1-7.68-1.38,14.91,14.91,0,0,1-5.62-3.81,16.93,16.93,0,0,1-3.37-5.62,19.94,19.94,0,0,1-1.17-6.89,18.51,18.51,0,0,1,.83-5.6,15.8,15.8,0,0,1,2.51-4.86,17.4,17.4,0,0,1,4-3.83,18.79,18.79,0,0,1,5.6-2.52,26.08,26.08,0,0,1,7-.91,33.48,33.48,0,0,1,11.1,1.8,23.94,23.94,0,0,1,8.61,5l-1.78,1.32a21.73,21.73,0,0,0-7.84-4.39,32.14,32.14,0,0,0-10.09-1.55,22.57,22.57,0,0,0-7.61,1.21,15.39,15.39,0,0,0-5.6,3.34,14.68,14.68,0,0,0-3.38,4.92,15.32,15.32,0,0,0-1.19,6,17.07,17.07,0,0,0,1.75,7.81,13.4,13.4,0,0,0,5.35,5.58A16.56,16.56,0,0,0,524.2,413.79Zm0-8.86h3.5q6.25,0,9.76,3.81a13.44,13.44,0,0,1,3.53,9.48,12.39,12.39,0,0,1-4.09,9.52q-4.09,3.77-11.47,3.77a30.26,30.26,0,0,1-9.19-1.35,19.82,19.82,0,0,1-7.11-3.81l1.73-1.38a18.05,18.05,0,0,0,6.35,3.2,28.75,28.75,0,0,0,8.23,1.14q6.49,0,9.92-3.11a10.25,10.25,0,0,0,3.43-8,11.3,11.3,0,0,0-2.87-7.94q-2.88-3.13-8.23-3.14H524.2q-4.49,0-6.74-2.46a9.12,9.12,0,0,1-2.24-6.39,8.12,8.12,0,0,1,2.78-6.4q2.78-2.46,8.35-2.46a27.8,27.8,0,0,1,7.26.91,15.66,15.66,0,0,1,5.53,2.6l-1.75,1.35q-3.85-2.64-11-2.64-4.65,0-6.78,1.83a6,6,0,0,0-2.14,4.81,7.08,7.08,0,0,0,1.59,4.83Q520.59,404.93,524.2,404.93Zm0,4.43h3.38q4.49,0,6.74,2.49a9.15,9.15,0,0,1,2.25,6.37,8.15,8.15,0,0,1-2.78,6.4q-2.79,2.46-8.35,2.46a27.75,27.75,0,0,1-7.27-.91,15.6,15.6,0,0,1-5.55-2.6l1.75-1.35q3.85,2.64,11.07,2.64,4.65,0,6.78-1.83a6,6,0,0,0,2.14-4.81,7.06,7.06,0,0,0-1.6-4.81q-1.6-1.83-5.2-1.83H524.2q-6.31,0-9.86-3.77a13.33,13.33,0,0,1-3.55-9.52,12.39,12.39,0,0,1,4.09-9.52Q519,385,526.35,385a30.17,30.17,0,0,1,9.18,1.36,19.8,19.8,0,0,1,7.09,3.81l-1.73,1.38a18,18,0,0,0-6.33-3.2,28.58,28.58,0,0,0-8.21-1.14q-6.49,0-9.92,3.1a10.27,10.27,0,0,0-3.43,8,11.23,11.23,0,0,0,2.89,7.95Q518.78,409.36,524.2,409.36Z"/><path class="cls-2" d="M299,209.33h-2l16.87-42.64h2l16.84,42.64h-2l-15.86-40.14Zm16.09-35.74,1.06,2.37L303,209.33h-2Zm2.06,4.89,1,2.55L307,209.33h-2Zm2,5.1,1,2.6L311,209.33h-2Zm-5,20.65,0.72-1.86H327l0.77,1.86H314.08Zm1.44-3.71,0.72-1.86h9.24l0.8,1.86H315.52Zm1.44-3.71L317.7,195H324l0.75,1.86H317Zm2.88-30.13,16.87,42.64h-2l-16.84-42.64h2Zm4,0,16.86,42.64h-2l-16.86-42.64h2Zm20.86,42.64h-2l-16.84-42.64h2Z"/><path class="cls-2" d="M365.16,183.37H362a3.57,3.57,0,0,1-2.86-1,4,4,0,0,1-.88-2.69q0-3.71,5.54-3.71,5.2,0,7.83,1.54l-1.49,1.13q-1.8-.82-6.33-0.82a6.08,6.08,0,0,0-3,.49,1.54,1.54,0,0,0-.76,1.36,2.07,2.07,0,0,0,.41,1.36,1.92,1.92,0,0,0,1.52.49h3.19a16,16,0,0,1,6.27,1.19,12.59,12.59,0,0,1,4.6,3.23,14.4,14.4,0,0,1,2.75,4.71,16.8,16.8,0,0,1,1,5.7,15.52,15.52,0,0,1-.7,4.69,13.28,13.28,0,0,1-2.1,4.07,14.48,14.48,0,0,1-3.37,3.21,15.84,15.84,0,0,1-4.69,2.11,21.84,21.84,0,0,1-5.88.76,28.22,28.22,0,0,1-9.31-1.51,20,20,0,0,1-7.22-4.21l1.49-1.1a18.1,18.1,0,0,0,6.58,3.67,26.86,26.86,0,0,0,8.46,1.3,18.9,18.9,0,0,0,6.37-1,12.89,12.89,0,0,0,4.69-2.79A12.37,12.37,0,0,0,377,201.4a12.9,12.9,0,0,0,1-5,14.32,14.32,0,0,0-1.44-6.48,11.41,11.41,0,0,0-4.39-4.7A13.07,13.07,0,0,0,365.16,183.37ZM362,192.64h2.83a3.56,3.56,0,0,1,2.86,1,4,4,0,0,1,.88,2.68q0,3.71-5.54,3.71-5.23,0-7.85-1.54l1.49-1.14q1.8,0.83,6.36.83a6.08,6.08,0,0,0,3-.49,1.54,1.54,0,0,0,.76-1.36,2,2,0,0,0-.42-1.35,2,2,0,0,0-1.56-.51H362a17,17,0,0,1-6.43-1.16,12.48,12.48,0,0,1-4.71-3.19,14.17,14.17,0,0,1-2.82-4.71,16.7,16.7,0,0,1-1-5.77,15.49,15.49,0,0,1,.7-4.69,13.23,13.23,0,0,1,2.1-4.07,14.56,14.56,0,0,1,3.37-3.21,15.73,15.73,0,0,1,4.69-2.11,21.84,21.84,0,0,1,5.88-.76,28,28,0,0,1,9.3,1.51,20,20,0,0,1,7.21,4.21l-1.49,1.11a18.19,18.19,0,0,0-6.56-3.67,26.91,26.91,0,0,0-8.45-1.3,18.9,18.9,0,0,0-6.37,1,12.89,12.89,0,0,0-4.69,2.79,12.29,12.29,0,0,0-2.83,4.12,12.82,12.82,0,0,0-1,5,14.29,14.29,0,0,0,1.47,6.54,11.22,11.22,0,0,0,4.48,4.67A13.87,13.87,0,0,0,362,192.64Zm0-7.42H365a10.58,10.58,0,0,1,8.17,3.19,11.26,11.26,0,0,1,3,7.93,10.37,10.37,0,0,1-3.43,8q-3.43,3.15-9.61,3.15a25.34,25.34,0,0,1-7.7-1.13,16.59,16.59,0,0,1-6-3.19l1.44-1.16a15.12,15.12,0,0,0,5.32,2.68,24.07,24.07,0,0,0,6.89,1q5.43,0,8.3-2.6a8.58,8.58,0,0,0,2.87-6.67,9.46,9.46,0,0,0-2.41-6.65,8.89,8.89,0,0,0-6.89-2.62H362q-3.76,0-5.64-2.06a7.63,7.63,0,0,1-1.88-5.35,6.8,6.8,0,0,1,2.33-5.36q2.33-2.06,7-2.06a23.27,23.27,0,0,1,6.08.76,13.11,13.11,0,0,1,4.63,2.18l-1.47,1.13q-3.22-2.21-9.24-2.21-3.89,0-5.68,1.53a5,5,0,0,0-1.79,4,5.93,5.93,0,0,0,1.33,4Q359,185.23,362,185.23Zm0,3.71h2.83q3.76,0,5.64,2.08a7.66,7.66,0,0,1,1.88,5.33,6.82,6.82,0,0,1-2.33,5.36q-2.33,2.06-7,2.06A23.24,23.24,0,0,1,357,203a13.06,13.06,0,0,1-4.65-2.17l1.47-1.13q3.22,2.21,9.27,2.21,3.89,0,5.68-1.53a5,5,0,0,0,1.79-4,5.91,5.91,0,0,0-1.34-4q-1.34-1.54-4.35-1.53H362q-5.28,0-8.25-3.15a11.16,11.16,0,0,1-3-8,10.37,10.37,0,0,1,3.43-8q3.43-3.16,9.61-3.16a25.26,25.26,0,0,1,7.69,1.14,16.58,16.58,0,0,1,5.93,3.19L376,174a15.09,15.09,0,0,0-5.3-2.68,23.93,23.93,0,0,0-6.87-1q-5.43,0-8.3,2.6a8.6,8.6,0,0,0-2.87,6.67,9.4,9.4,0,0,0,2.42,6.65Q357.51,188.94,362,188.94Z"/><circle class="cls-3" cx="106.91" cy="56.6" r="56.6"/><polygon class="cls-1" points="84.75 295.28 167.03 295.28 134.57 277.92 52.3 277.92 84.75 295.28"/><polygon class="cls-1" points="89.5 214.39 145.55 214.39 123.44 202.56 67.39 202.56 89.5 214.39"/><polygon class="cls-1" points="94.86 164.45 128.49 164.45 115.23 157.35 81.6 157.35 94.86 164.45"/><rect class="cls-4" x="84.76" y="295.28" width="82.27" height="110.61"/><rect class="cls-4" x="89.5" y="214.39" width="56.05" height="75.35"/><rect class="cls-4" x="94.86" y="164.45" width="33.63" height="45.21"/><polygon class="cls-2" points="52.3 388.52 84.75 405.89 84.75 295.28 52.3 277.92 52.3 388.52"/><polygon class="cls-2" points="67.39 277.92 89.5 289.75 89.5 214.39 67.39 202.56 67.39 277.92"/><polygon class="cls-2" points="81.6 202.56 94.86 209.66 94.86 164.45 81.6 157.35 81.6 202.56"/><rect class="cls-3" x="148.74" y="303.51" width="9.14" height="8.23" transform="translate(306.63 615.25) rotate(-180)"/><rect class="cls-3" x="130.46" y="303.51" width="9.14" height="8.23" transform="translate(270.06 615.25) rotate(-180)"/><rect class="cls-3" x="112.18" y="303.51" width="9.14" height="8.23" transform="translate(233.5 615.25) rotate(-180)"/><rect class="cls-3" x="93.9" y="303.51" width="9.14" height="8.23" transform="translate(196.93 615.25) rotate(-180)"/><rect class="cls-3" x="148.74" y="319.96" width="9.14" height="8.23" transform="translate(306.63 648.16) rotate(-180)"/><rect class="cls-3" x="130.46" y="319.96" width="9.14" height="8.23" transform="translate(270.06 648.16) rotate(-180)"/><rect class="cls-3" x="112.18" y="319.96" width="9.14" height="8.23" transform="translate(233.5 648.16) rotate(-180)"/><rect class="cls-3" x="93.9" y="319.96" width="9.14" height="8.23" transform="translate(196.93 648.16) rotate(-180)"/><rect class="cls-3" x="148.74" y="336.42" width="9.14" height="8.23" transform="translate(306.63 681.06) rotate(-180)"/><rect class="cls-3" x="130.46" y="336.42" width="9.14" height="8.23" transform="translate(270.06 681.06) rotate(-180)"/><rect class="cls-3" x="112.18" y="336.42" width="9.14" height="8.23" transform="translate(233.5 681.06) rotate(-180)"/><rect class="cls-3" x="93.9" y="336.42" width="9.14" height="8.23" transform="translate(196.93 681.06) rotate(-180)"/><rect class="cls-3" x="148.74" y="352.87" width="9.14" height="8.23" transform="translate(306.63 713.97) rotate(-180)"/><rect class="cls-3" x="130.46" y="352.87" width="9.14" height="8.23" transform="translate(270.06 713.97) rotate(-180)"/><rect class="cls-3" x="112.18" y="352.87" width="9.14" height="8.23" transform="translate(233.5 713.97) rotate(-180)"/><rect class="cls-3" x="93.9" y="352.87" width="9.14" height="8.23" transform="translate(196.93 713.97) rotate(-180)"/><rect class="cls-3" x="148.74" y="369.33" width="9.14" height="8.23" transform="translate(306.63 746.88) rotate(-180)"/><rect class="cls-3" x="130.46" y="369.33" width="9.14" height="8.23" transform="translate(270.06 746.88) rotate(-180)"/><rect class="cls-3" x="112.18" y="369.33" width="9.14" height="8.23" transform="translate(233.5 746.88) rotate(-180)"/><rect class="cls-3" x="93.9" y="369.33" width="9.14" height="8.23" transform="translate(196.93 746.88) rotate(-180)"/><rect class="cls-3" x="148.74" y="385.78" width="9.14" height="8.23" transform="translate(306.63 779.79) rotate(-180)"/><rect class="cls-3" x="130.46" y="385.78" width="9.14" height="8.23" transform="translate(270.06 779.79) rotate(-180)"/><rect class="cls-3" x="112.18" y="385.78" width="9.14" height="8.23" transform="translate(233.5 779.79) rotate(-180)"/><rect class="cls-3" x="93.9" y="385.78" width="9.14" height="8.23" transform="translate(196.93 779.79) rotate(-180)"/><rect class="cls-3" x="133.1" y="220" width="6.23" height="5.6" transform="translate(272.42 445.6) rotate(-180)"/><rect class="cls-3" x="120.64" y="220" width="6.23" height="5.6" transform="translate(247.51 445.6) rotate(-180)"/><rect class="cls-3" x="108.19" y="220" width="6.23" height="5.6" transform="translate(222.6 445.6) rotate(-180)"/><rect class="cls-3" x="95.73" y="220" width="6.23" height="5.6" transform="translate(197.69 445.6) rotate(-180)"/><rect class="cls-3" x="133.1" y="231.21" width="6.23" height="5.6" transform="translate(272.42 468.02) rotate(-180)"/><rect class="cls-3" x="120.64" y="231.21" width="6.23" height="5.6" transform="translate(247.51 468.02) rotate(-180)"/><rect class="cls-3" x="108.19" y="231.21" width="6.23" height="5.6" transform="translate(222.6 468.02) rotate(-180)"/><rect class="cls-3" x="95.73" y="231.21" width="6.23" height="5.6" transform="translate(197.69 468.02) rotate(-180)"/><rect class="cls-3" x="133.1" y="242.42" width="6.23" height="5.6" transform="translate(272.42 490.44) rotate(-180)"/><rect class="cls-3" x="120.64" y="242.42" width="6.23" height="5.6" transform="translate(247.51 490.44) rotate(-180)"/><rect class="cls-3" x="108.19" y="242.42" width="6.23" height="5.6" transform="translate(222.6 490.44) rotate(-180)"/><rect class="cls-3" x="95.73" y="242.42" width="6.23" height="5.6" transform="translate(197.69 490.44) rotate(-180)"/><rect class="cls-3" x="133.1" y="253.63" width="6.23" height="5.6" transform="translate(272.42 512.86) rotate(-180)"/><rect class="cls-3" x="120.64" y="253.63" width="6.23" height="5.6" transform="translate(247.51 512.86) rotate(-180)"/><rect class="cls-3" x="108.19" y="253.63" width="6.23" height="5.6" transform="translate(222.6 512.86) rotate(-180)"/><rect class="cls-3" x="95.73" y="253.63" width="6.23" height="5.6" transform="translate(197.69 512.86) rotate(-180)"/><rect class="cls-3" x="133.1" y="264.84" width="6.23" height="5.6" transform="translate(272.42 535.28) rotate(-180)"/><rect class="cls-3" x="120.64" y="264.84" width="6.23" height="5.6" transform="translate(247.51 535.28) rotate(-180)"/><rect class="cls-3" x="108.19" y="264.84" width="6.23" height="5.6" transform="translate(222.6 535.28) rotate(-180)"/><rect class="cls-3" x="95.73" y="264.84" width="6.23" height="5.6" transform="translate(197.69 535.28) rotate(-180)"/><rect class="cls-3" x="133.1" y="276.05" width="6.23" height="5.6" transform="translate(272.42 557.7) rotate(-180)"/><rect class="cls-3" x="120.64" y="276.05" width="6.23" height="5.6" transform="translate(247.51 557.7) rotate(-180)"/><rect class="cls-3" x="108.19" y="276.05" width="6.23" height="5.6" transform="translate(222.6 557.7) rotate(-180)"/><rect class="cls-3" x="95.73" y="276.05" width="6.23" height="5.6" transform="translate(197.69 557.7) rotate(-180)"/><rect class="cls-3" x="106.07" y="113.19" width="1.67" height="46.98" rx="0.07" ry="0.07" transform="translate(213.82 273.37) rotate(-180)"/><polygon class="cls-2" points="187.63 271.66 237.16 271.66 206.72 255.36 157.18 255.36 187.63 271.66"/><polygon class="cls-5" points="187.63 271.66 187.63 426.38 157.18 410.08 157.18 255.36 187.63 271.66"/><polygon class="cls-3" points="183.32 285.85 173.49 280.59 173.49 274.7 183.32 279.96 183.32 285.85"/><polygon class="cls-3" points="183.32 297.64 173.49 292.38 173.49 286.49 183.32 291.75 183.32 297.64"/><polygon class="cls-3" points="183.32 309.43 173.49 304.17 173.49 298.28 183.32 303.54 183.32 309.43"/><polygon class="cls-3" points="183.32 321.22 173.49 315.96 173.49 310.07 183.32 315.32 183.32 321.22"/><polygon class="cls-3" points="183.32 333.01 173.49 327.75 173.49 321.86 183.32 327.11 183.32 333.01"/><polygon class="cls-3" points="183.32 344.8 173.49 339.54 173.49 333.65 183.32 338.9 183.32 344.8"/><polygon class="cls-3" points="183.32 356.59 173.49 351.33 173.49 345.44 183.32 350.69 183.32 356.59"/><polygon class="cls-3" points="183.32 368.38 173.49 363.12 173.49 357.23 183.32 362.48 183.32 368.38"/><polygon class="cls-3" points="183.32 380.17 173.49 374.91 173.49 369.01 183.32 374.27 183.32 380.17"/><polygon class="cls-3" points="183.32 391.96 173.49 386.7 173.49 380.8 183.32 386.06 183.32 391.96"/><polygon class="cls-3" points="183.32 403.75 173.49 398.49 173.49 392.59 183.32 397.85 183.32 403.75"/><polygon class="cls-3" points="170.89 279.2 161.07 273.94 161.07 268.05 170.89 273.31 170.89 279.2"/><polygon class="cls-3" points="170.89 290.99 161.07 285.73 161.07 279.84 170.89 285.1 170.89 290.99"/><polygon class="cls-3" points="170.89 302.78 161.07 297.52 161.07 291.63 170.89 296.88 170.89 302.78"/><polygon class="cls-3" points="170.89 314.57 161.07 309.31 161.07 303.42 170.89 308.68 170.89 314.57"/><polygon class="cls-3" points="170.89 326.36 161.07 321.1 161.07 315.21 170.89 320.46 170.89 326.36"/><polygon class="cls-3" points="170.89 338.15 161.07 332.89 161.07 327 170.89 332.25 170.89 338.15"/><polygon class="cls-3" points="170.89 349.94 161.07 344.68 161.07 338.79 170.89 344.04 170.89 349.94"/><polygon class="cls-3" points="170.89 361.73 161.07 356.47 161.07 350.57 170.89 355.83 170.89 361.73"/><polygon class="cls-3" points="170.89 373.52 161.07 368.26 161.07 362.37 170.89 367.62 170.89 373.52"/><polygon class="cls-3" points="170.89 385.31 161.07 380.05 161.07 374.15 170.89 379.41 170.89 385.31"/><polygon class="cls-3" points="170.89 397.1 161.07 391.84 161.07 385.94 170.89 391.2 170.89 397.1"/><rect class="cls-4" x="187.63" y="271.66" width="49.53" height="154.72" transform="translate(424.79 698.03) rotate(-180)"/><polygon class="cls-5" points="170.64 258.1 185.65 266.14 185.65 248.86 170.64 240.83 170.64 258.1"/><polygon class="cls-5" points="180.57 258.1 195.58 266.14 195.58 238.01 180.57 229.98 180.57 258.1"/><polygon class="cls-1" points="195.58 248.86 195.58 238.01 223.71 238.01 223.71 266.14 195.58 266.14 185.65 266.14 185.65 248.86 195.58 248.86"/><polygon class="cls-1" points="209.64 228.57 223.71 238.01 195.58 238.01 209.64 228.57"/><polygon class="cls-1" points="190.61 245.53 195.58 248.86 185.65 248.86 190.61 245.53"/><polygon class="cls-2" points="175.6 237.5 190.61 245.53 185.65 248.86 170.64 240.83 175.6 237.5"/><polygon class="cls-2" points="194.63 220.53 209.64 228.57 195.58 238.01 180.57 229.98 194.63 220.53"/><rect class="cls-3" x="205.98" y="248.06" width="7.33" height="18.08" transform="translate(419.28 514.19) rotate(-180)"/><rect class="cls-3" x="188.71" y="255.05" width="3.81" height="5.59" transform="translate(381.23 515.7) rotate(-180)"/><rect class="cls-3" x="192.87" y="255.05" width="3.81" height="5.59" transform="translate(389.54 515.7) rotate(-180)"/><polygon class="cls-2" points="161.84 420.64 188.05 434.67 188.05 385.55 161.84 371.52 161.84 420.64"/><polygon class="cls-3" points="169.49 424.73 176.22 428.33 176.22 406.84 169.49 403.23 169.49 424.73"/><polygon class="cls-2" points="161.84 371.52 188.05 385.55 174.94 367.13 161.84 371.52"/><polygon class="cls-1" points="174.94 367.13 188.05 385.55 237.16 385.55 224.06 367.13 174.94 367.13"/><rect class="cls-5" x="188.05" y="385.55" width="49.11" height="49.11"/><rect class="cls-3" x="213.14" y="400.77" width="9.78" height="18.68"/><rect class="cls-3" x="202.29" y="400.77" width="9.78" height="18.68"/><polygon class="cls-4" points="134.51 427.17 150.89 435.93 150.89 405.24 134.51 396.48 134.51 427.17"/><polygon class="cls-3" points="138.75 429.44 143.4 431.93 143.4 415.54 138.75 413.05 138.75 429.44"/><polygon class="cls-5" points="166.23 394.94 181.58 405.24 181.58 435.93 150.89 435.93 150.89 405.24 166.23 394.94"/><polygon class="cls-1" points="149.85 386.17 166.23 394.94 150.89 405.24 134.51 396.48 149.85 386.17"/><rect class="cls-3" x="162.23" y="423.88" width="8" height="12.05" transform="translate(332.46 859.82) rotate(-180)"/><polygon class="cls-2" points="54.89 336.01 54.89 412.92 39.76 404.82 39.76 327.91 54.89 336.01"/><rect class="cls-1" x="15.13" y="327.91" width="24.62" height="76.91" transform="translate(54.89 732.74) rotate(-180)"/><polygon class="cls-4" points="15.13 327.91 0 319.81 24.62 319.81 49.24 319.81 64.38 327.91 79.51 336.01 94.64 344.11 70.02 344.11 45.4 344.11 30.27 336.01 54.89 336.01 39.76 327.91 15.13 327.91"/><polygon class="cls-1" points="70.02 344.11 94.64 344.11 94.64 421.02 70.02 421.02 45.4 421.02 45.4 344.11 70.02 344.11"/><polygon class="cls-5" points="45.4 344.11 45.4 421.02 30.27 412.92 30.27 336.01 45.4 344.11"/><polygon class="cls-3" points="43.04 352.95 43.04 356.29 37.48 353.31 31.92 350.33 31.92 347 37.48 349.97 43.04 352.95"/><polygon class="cls-3" points="43.04 359.62 43.04 362.96 37.48 359.98 31.92 357 31.92 353.67 37.48 356.64 43.04 359.62"/><polygon class="cls-3" points="43.04 366.29 43.04 369.63 37.48 366.65 31.92 363.68 31.92 360.34 37.48 363.32 43.04 366.29"/><polygon class="cls-3" points="43.04 372.97 43.04 376.3 37.48 373.33 31.92 370.35 31.92 367.01 37.48 369.99 43.04 372.97"/><polygon class="cls-3" points="43.04 379.64 43.04 382.97 37.48 380 31.92 377.02 31.92 373.69 37.48 376.66 43.04 379.64"/><polygon class="cls-3" points="43.04 386.31 43.04 389.65 37.48 386.67 31.92 383.69 31.92 380.36 37.48 383.33 43.04 386.31"/><polygon class="cls-3" points="43.04 392.98 43.04 396.32 37.48 393.34 31.92 390.37 31.92 387.03 37.48 390.01 43.04 392.98"/><polygon class="cls-3" points="43.04 399.65 43.04 402.99 37.48 400.02 31.92 397.04 31.92 393.7 37.48 396.68 43.04 399.65"/><polygon class="cls-3" points="37.48 343.3 43.04 346.28 43.04 349.61 37.48 346.64 31.92 343.66 31.92 340.32 37.48 343.3"/><polygon class="cls-3" points="43.04 413 43.04 416.34 37.48 413.36 31.92 410.38 31.92 407.05 37.48 410.02 43.04 413"/><polygon class="cls-3" points="43.04 406.33 43.04 409.66 37.48 406.69 31.92 403.71 31.92 400.38 37.48 403.35 43.04 406.33"/><polygon class="cls-5" points="15.13 327.91 15.13 404.82 0 396.72 0 319.81 15.13 327.91"/><polygon class="cls-3" points="12.78 336.75 12.78 340.09 7.22 337.11 1.66 334.13 1.66 330.8 7.22 333.77 12.78 336.75"/><polygon class="cls-3" points="12.78 343.42 12.78 346.76 7.22 343.78 1.66 340.81 1.66 337.47 7.22 340.45 12.78 343.42"/><polygon class="cls-3" points="12.78 350.09 12.78 353.43 7.22 350.45 1.66 347.48 1.66 344.14 7.22 347.12 12.78 350.09"/><polygon class="cls-3" points="12.78 356.77 12.78 360.1 7.22 357.13 1.66 354.15 1.66 350.81 7.22 353.79 12.78 356.77"/><polygon class="cls-3" points="12.78 363.44 12.78 366.77 7.22 363.8 1.66 360.82 1.66 357.49 7.22 360.46 12.78 363.44"/><polygon class="cls-3" points="12.78 370.11 12.78 373.45 7.22 370.47 1.66 367.5 1.66 364.16 7.22 367.13 12.78 370.11"/><polygon class="cls-3" points="12.78 376.78 12.78 380.12 7.22 377.14 1.66 374.17 1.66 370.83 7.22 373.81 12.78 376.78"/><polygon class="cls-3" points="12.78 383.46 12.78 386.79 7.22 383.82 1.66 380.84 1.66 377.5 7.22 380.48 12.78 383.46"/><polygon class="cls-3" points="7.22 327.1 12.78 330.08 12.78 333.41 7.22 330.44 1.66 327.46 1.66 324.13 7.22 327.1"/><polygon class="cls-3" points="12.78 396.8 12.78 400.14 7.22 397.16 1.66 394.19 1.66 390.85 7.22 393.82 12.78 396.8"/><polygon class="cls-3" points="12.78 390.13 12.78 393.46 7.22 390.49 1.66 387.51 1.66 384.18 7.22 387.15 12.78 390.13"/><polygon class="cls-5" points="117.79 394.64 137.54 394.64 120.09 385.3 117.79 385.3 117.79 394.64"/><polygon class="cls-2" points="117.79 376.45 117.79 394.64 137.54 394.64 137.54 435.93 117.79 435.93 73.55 435.93 73.55 376.45 117.79 376.45"/><polygon class="cls-4" points="56.1 426.59 73.55 435.93 73.55 376.45 56.1 367.11 56.1 426.59"/><polygon class="cls-5" points="73.55 376.45 117.79 376.45 100.34 367.11 56.1 367.11 73.55 376.45"/><polygon class="cls-4" points="91.75 28.8 91.75 43.96 101.86 43.96 101.86 38.91 111.96 38.91 111.96 49.02 106.91 49.02 101.86 49.02 101.86 59.12 101.86 69.23 111.96 69.23 111.96 59.12 122.07 59.12 122.07 28.8 91.75 28.8"/><rect class="cls-4" x="101.85" y="74.29" width="10.11" height="10.11"/></svg>