<?xml version="1.0" encoding="utf-8"?>
<!-- Generator: Adobe Illustrator 19.2.1, SVG Export Plug-In . SVG Version: 6.00 Build 0)  -->
<svg version="1.1" id="Camada_1" xmlns="http://www.w3.org/2000/svg" xmlns:xlink="http://www.w3.org/1999/xlink" x="0px" y="0px"
	 viewBox="0 0 93 93" style="enable-background:new 0 0 93 93;" xml:space="preserve">
<style type="text/css">
	.st0{fill:#7D427D;}
	.st1{fill:#C64832;}
	.st2{fill:#58A87D;}
	.st3{fill:#DB9600;}
</style>
<g>
	<polygon class="st0" points="21.8,60.3 35.8,67.8 35.8,51.7 21.8,44.2 	"/>
	<polygon class="st0" points="31,60.3 45,67.8 45,41.5 31,34 	"/>
	<polygon class="st1" points="58.1,32.7 45,41.5 45,51.7 40.4,48.5 35.8,51.7 35.8,67.8 45,67.8 71.2,67.8 71.2,41.5 	"/>
	<polygon class="st2" points="26.4,41.1 40.4,48.5 35.8,51.7 21.8,44.2 	"/>
	<polygon class="st2" points="44.1,25.2 58.1,32.7 45,41.5 31,34 	"/>
	
		<rect x="54.7" y="50.9" transform="matrix(-1 -4.259094e-011 4.259094e-011 -1 116.2503 118.662)" class="st3" width="6.8" height="16.9"/>
	
		<rect x="38.6" y="57.4" transform="matrix(-1 -4.511559e-011 4.511559e-011 -1 80.7699 120.0627)" class="st3" width="3.5" height="5.2"/>
	
		<rect x="42.5" y="57.4" transform="matrix(-1 -3.896362e-011 3.896362e-011 -1 88.523 120.0627)" class="st3" width="3.5" height="5.2"/>
</g>
</svg>
