<?xml version="1.0" encoding="utf-8"?>
<!-- Generator: Adobe Illustrator 19.2.1, SVG Export Plug-In . SVG Version: 6.00 Build 0)  -->
<svg version="1.1" id="Camada_1" xmlns="http://www.w3.org/2000/svg" xmlns:xlink="http://www.w3.org/1999/xlink" x="0px" y="0px"
	 viewBox="0 0 93 93" style="enable-background:new 0 0 93 93;" xml:space="preserve">
<style type="text/css">
	.st0{fill:#C64832;}
</style>
<path class="st0" d="M46.5,25.2c-8.2,0-14.8,6.6-14.8,14.8c0,6.9,4.7,12.7,11.1,14.3v9.8c0,2,1.7,3.7,3.7,3.7c2,0,3.7-1.7,3.7-3.7
	v-9.8c6.4-1.6,11.1-7.4,11.1-14.3C61.3,31.9,54.7,25.2,46.5,25.2z M50.2,47.5c-1.1,0.6-2.4,0.9-3.7,0.9c-1.3,0-2.6-0.3-3.7-0.9
	c-2.7-1.4-4.6-4.2-4.6-7.5c0-4.6,3.7-8.3,8.3-8.3c4.6,0,8.3,3.7,8.3,8.3C54.8,43.3,52.9,46.1,50.2,47.5z"/>
</svg>
